<svg width="80" height="26" viewBox="0 0 80 26" fill="none" xmlns="http://www.w3.org/2000/svg">
<g id="airbnb 1" clip-path="url(#clip0_11_45)">
<path id="Vector" d="M42.162 6.84733C42.162 7.74687 41.4372 8.4712 40.5376 8.4712C39.6381 8.4712 38.9137 7.74687 38.9137 6.84733C38.9137 5.94779 39.6134 5.22346 40.5376 5.22346C41.4626 5.24842 42.162 5.973 42.162 6.84733ZM35.4658 10.1205V10.5204C35.4658 10.5204 34.6916 9.52049 33.0425 9.52049C30.3195 9.52049 28.1954 11.5944 28.1954 14.4675C28.1954 17.3159 30.2945 19.4144 33.0425 19.4144C34.7166 19.4144 35.4658 18.3901 35.4658 18.3901V18.8147C35.4658 19.0146 35.6161 19.1641 35.8158 19.1641H37.8392V9.76959H35.8158C35.6161 9.77034 35.4658 9.94556 35.4658 10.1205ZM35.4658 16.1415C35.0915 16.6914 34.3417 17.1661 33.4424 17.1661C31.8435 17.1661 30.619 16.1667 30.619 14.4675C30.619 12.7685 31.8435 11.7691 33.4424 11.7691C34.317 11.7691 35.1164 12.2688 35.4658 12.7934V16.1415ZM39.3386 9.77034H41.7369V19.1648H39.3386V9.77034ZM75.1666 9.52025C73.5175 9.52025 72.7428 10.5201 72.7428 10.5201V5.24842H70.3445V19.1648H72.3684C72.5683 19.1648 72.7179 18.9899 72.7179 18.8149V18.3904C72.7179 18.3904 73.4926 19.4147 75.1412 19.4147C77.8647 19.4147 79.9883 17.3166 79.9883 14.4682C79.9883 11.6198 77.8647 9.52025 75.1666 9.52025ZM74.7668 17.1409C73.842 17.1409 73.1177 16.6667 72.7428 16.1165V12.7685C73.1177 12.2688 73.9172 11.7441 74.7668 11.7441C76.3657 11.7441 77.5899 12.7435 77.5899 14.4425C77.5899 16.1415 76.3659 17.1409 74.7668 17.1409ZM69.0955 13.5934V19.1898H66.6966V13.8679C66.6966 12.3192 66.1969 11.6942 64.8486 11.6942C64.1243 11.6942 63.3745 12.0691 62.899 12.619V19.1651H60.5012V9.77059H62.3994C62.5993 9.77059 62.7493 9.94556 62.7493 10.1205V10.5204C63.4489 9.79555 64.3731 9.52049 65.2974 9.52049C66.3469 9.52049 67.2215 9.82076 67.9211 10.4203C68.7703 11.1199 69.0955 12.0192 69.0955 13.5934ZM54.6789 9.52025C53.0303 9.52025 52.2556 10.5201 52.2556 10.5201V5.24842H49.8572V19.1648H51.8807C52.0806 19.1648 52.2306 18.9899 52.2306 18.8149V18.3904C52.2306 18.3904 53.0054 19.4147 54.6539 19.4147C57.3775 19.4147 59.5011 17.3166 59.5011 14.4682C59.526 11.6196 57.4025 9.52025 54.6789 9.52025ZM54.2791 17.1409C53.3548 17.1409 52.6305 16.6667 52.2556 16.1165V12.7685C52.6305 12.2688 53.4299 11.7441 54.2791 11.7441C55.8785 11.7441 57.1025 12.7435 57.1025 14.4425C57.1025 16.1415 55.8785 17.1409 54.2791 17.1409ZM47.7833 9.52025C48.5077 9.52025 48.8826 9.64554 48.8826 9.64554V11.8689C48.8826 11.8689 46.8838 11.1943 45.6348 12.6187V19.1896H43.236V9.77034H45.2599C45.4599 9.77034 45.6094 9.94531 45.6094 10.1203V10.5201C46.0596 9.99522 47.0341 9.52025 47.7833 9.52025ZM22.874 18.3152C22.7492 18.0155 22.6242 17.6907 22.4994 17.4157C22.2992 16.9662 22.0993 16.5411 21.9248 16.1415L21.8999 16.1165C20.1757 12.3686 18.3272 8.57128 16.3781 4.82386L16.3032 4.6736C16.0982 4.28485 15.8984 3.89337 15.7039 3.49926C15.4539 3.04924 15.2043 2.575 14.8044 2.12498C14.005 1.1256 12.8556 0.575745 11.6316 0.575745C10.3821 0.575745 9.25792 1.12561 8.43375 2.07482C8.05886 2.52434 7.78381 2.99907 7.53421 3.44909C7.33922 3.84295 7.13945 4.23443 6.93494 4.62343L6.85981 4.77369C4.93593 8.52111 3.06223 12.3187 1.33828 16.0664L1.31307 16.1161C1.13835 16.5164 0.938177 16.941 0.738252 17.3902C0.613455 17.6653 0.488657 17.965 0.36386 18.2898C0.0388879 19.214 -0.0612043 20.0886 0.0640922 20.9884C0.338896 22.8624 1.58787 24.4358 3.31207 25.1359C3.96176 25.411 4.63642 25.5358 5.33578 25.5358C5.53571 25.5358 5.78531 25.5108 5.98548 25.4856C6.81014 25.3858 7.65951 25.1112 8.48417 24.6365C9.50851 24.0617 10.4829 23.2375 11.5821 22.0382C12.6814 23.2375 13.6807 24.0617 14.6801 24.6365C15.505 25.1112 16.3541 25.3858 17.1785 25.4856C17.3785 25.5111 17.6286 25.5358 17.8285 25.5358C18.5281 25.5358 19.2275 25.411 19.852 25.1359C21.6011 24.4358 22.8251 22.8374 23.1002 20.9884C23.2986 20.1141 23.1988 19.24 22.874 18.3152ZM11.6064 19.6144C10.257 17.9154 9.38246 16.3165 9.08295 14.9677C8.95815 14.3928 8.93294 13.8932 9.00807 13.4434C9.05774 13.0435 9.20799 12.6936 9.40792 12.3938C9.88265 11.7197 10.6821 11.2946 11.6066 11.2946C12.5314 11.2946 13.3558 11.6945 13.8055 12.3938C14.0055 12.6936 14.1552 13.0438 14.2056 13.4434C14.2803 13.8934 14.2553 14.4178 14.1305 14.9677C13.8297 16.2915 12.9552 17.8907 11.6064 19.6144ZM21.5747 20.7887C21.3999 22.0879 20.5254 23.2125 19.3013 23.7122C18.7018 23.9618 18.0519 24.0369 17.4027 23.9618C16.7782 23.8867 16.1532 23.6868 15.504 23.3124C14.6045 22.8122 13.7052 22.0382 12.6556 20.8886C14.3045 18.8651 15.3038 17.0158 15.6787 15.3673C15.8537 14.5925 15.8789 13.8932 15.8035 13.2432C15.7039 12.6187 15.4788 12.0439 15.1291 11.5442C14.3541 10.4195 13.0547 9.77034 11.6061 9.77034C10.1575 9.77034 8.85806 10.445 8.08357 11.5442C7.73389 12.0439 7.50875 12.6187 7.40891 13.2432C7.30908 13.8932 7.33379 14.6175 7.53371 15.3673C7.90835 17.0158 8.9327 18.8898 10.5566 20.9135C9.53222 22.0629 8.60772 22.8377 7.70818 23.3373C7.05848 23.7122 6.43425 23.9122 5.80977 23.9868C5.13536 24.0619 4.48542 23.9618 3.91085 23.7372C2.68684 23.2375 1.81226 22.1128 1.63754 20.8137C1.56266 20.1892 1.61233 19.5647 1.86243 18.8651C1.93705 18.615 2.06235 18.3654 2.18715 18.0656C2.36211 17.6658 2.56154 17.2407 2.76171 16.8162L2.78693 16.7665C4.51063 13.0435 6.35937 9.24594 8.28325 5.54843L8.35812 5.39818C8.5583 5.02379 8.75823 4.62393 8.9579 4.24904C9.15783 3.84919 9.38246 3.4743 9.65751 3.14932C10.1822 2.55029 10.8815 2.22507 11.6563 2.22507C12.431 2.22507 13.1304 2.55029 13.655 3.14932C13.9301 3.47504 14.1547 3.84994 14.3546 4.24904C14.5548 4.62393 14.7547 5.02379 14.9542 5.39818L15.0293 5.54843C16.9238 9.2613 18.748 13.0096 20.5009 16.7915V16.8164C20.7011 17.2168 20.8758 17.666 21.0757 18.0664C21.2005 18.3657 21.3256 18.6153 21.4004 18.8653C21.5999 19.5143 21.6747 20.1393 21.5747 20.7887Z" fill="#FF5A5F"/>
</g>
<defs>
<clipPath id="clip0_11_45">
<rect width="80" height="24.96" fill="white" transform="translate(0 0.575989)"/>
</clipPath>
</defs>
</svg>
