<svg width="78" height="16" viewBox="0 0 78 16" fill="none" xmlns="http://www.w3.org/2000/svg">
<g id="Group">
<path id="Vector" d="M41.1858 7.83424C40.5252 7.83424 40.0491 8.05085 39.5662 8.27153V13.265C40.0287 13.3091 40.2938 13.3091 40.7326 13.3091C42.3181 13.3091 42.5354 12.583 42.5354 11.5692V9.18425C42.5354 8.43556 42.287 7.83424 41.1858 7.83424ZM30.656 7.56172C29.5559 7.56172 29.3049 8.16563 29.3049 8.91358V9.33384H32.0056V8.91358C32.0056 8.16563 31.7546 7.56172 30.656 7.56172ZM10.2577 12.7592C10.2577 13.3509 10.5368 13.6583 11.153 13.6583C11.8139 13.6583 12.2053 13.4428 12.6878 13.2213V12.0368H11.2426C10.5583 12.0368 10.2577 12.1642 10.2577 12.7592ZM51.4287 7.83424C50.3267 7.83424 49.945 8.43556 49.945 9.18425V11.9165C49.945 12.667 50.3267 13.2702 51.4287 13.2702C52.5276 13.2702 52.9123 12.667 52.9123 11.9165V9.18425C52.912 8.43556 52.5273 7.83424 51.4287 7.83424ZM4.85761 15.8229H1.61846V7.98272H0V5.28121H1.61883V3.65867C1.61883 1.45444 2.53229 0.144043 5.12865 0.144043H7.2903V2.84629H5.93917C4.92833 2.84629 4.86168 3.22397 4.86168 3.9286L4.85761 5.28084H7.30511L7.01889 7.98235H4.85761V15.8229ZM15.9276 15.8432H13.228L13.1114 15.1605C11.8787 15.8432 10.7786 15.9539 10.0529 15.9539C8.07305 15.9539 7.01926 14.6313 7.01926 12.8022C7.01926 10.6442 8.24893 9.87407 10.4487 9.87407H12.6878V9.40753C12.6878 8.30596 12.5615 7.98272 10.8675 7.98272H8.09786L8.36853 5.28121H11.3959C15.1127 5.28121 15.9276 6.45534 15.9276 9.42937V15.8432ZM25.1078 8.18081C23.4279 7.89274 22.9454 7.82942 22.1371 7.82942C20.6853 7.82942 20.2465 8.14971 20.2465 9.38272V11.7151C20.2465 12.9481 20.6853 13.2698 22.1371 13.2698C22.9454 13.2698 23.4279 13.2054 25.1078 12.9162V15.5515C23.6364 15.8814 22.6777 15.968 21.8676 15.968C18.39 15.968 17.0077 14.1392 17.0077 11.4973V9.60488C17.0077 6.96076 18.39 5.12865 21.8676 5.12865C22.6777 5.12865 23.6364 5.21567 25.1078 5.54706V8.18081ZM35.2444 11.4973H29.3045V11.7151C29.3045 12.9481 29.7436 13.2698 31.1951 13.2698C32.4999 13.2698 33.2964 13.2054 34.9734 12.9162V15.5515C33.356 15.8814 32.5133 15.968 30.9267 15.968C27.4487 15.968 26.0657 14.1392 26.0657 11.4973V9.33347C26.0657 7.02186 27.0917 5.12865 30.6556 5.12865C34.2195 5.12865 35.2444 7.00001 35.2444 9.33347V11.4973ZM45.7738 11.5473C45.7738 14.1007 45.044 15.9632 40.623 15.9632C39.0264 15.9632 38.0899 15.8229 36.3278 15.5518V0.955681L39.5658 0.415453V5.52114C40.2657 5.26121 41.1714 5.12902 41.9956 5.12902C45.234 5.12902 45.7735 6.58086 45.7735 8.91395L45.7738 11.5473ZM56.1537 11.6029C56.1537 13.8056 55.2443 15.9421 51.4394 15.9421C47.6326 15.9421 46.7062 13.8056 46.7062 11.6029V9.47602C46.7062 7.27216 47.6326 5.13532 51.4394 5.13532C55.2443 5.13532 56.1537 7.27216 56.1537 9.47602V11.6029ZM66.5265 11.6029C66.5265 13.8056 65.616 15.9421 61.8118 15.9421C58.0051 15.9421 57.0786 13.8056 57.0786 11.6029V9.47602C57.0786 7.27216 58.0051 5.13532 61.8118 5.13532C65.616 5.13532 66.5265 7.27216 66.5265 9.47602V11.6029ZM77.1715 15.8229H73.6617L70.6932 10.8675V15.8229H67.454V0.95531L70.6932 0.415083V9.98626L73.6617 5.28121H77.1715L73.9308 10.4158L77.1715 15.8229ZM61.8007 7.83424C60.7006 7.83424 60.3189 8.43556 60.3189 9.18425V11.9165C60.3189 12.667 60.7006 13.2702 61.8007 13.2702C62.8993 13.2702 63.2881 12.667 63.2881 11.9165V9.18425C63.2881 8.43556 62.8993 7.83424 61.8007 7.83424Z" fill="#3B5998"/>
</g>
</svg>
