<svg width="80" height="27" viewBox="0 0 80 27" fill="none" xmlns="http://www.w3.org/2000/svg">
<g id="google-2015a 1" clip-path="url(#clip0_93_3)">
<path id="Vector" d="M9.85279 0.00317383H10.5632C13.0336 0.0575739 15.4624 1.04958 17.2064 2.80958C16.5632 3.46878 15.904 4.09918 15.2736 4.75518C14.2944 3.86878 13.1136 3.18398 11.824 2.94398C9.91679 2.54078 7.86559 2.90238 6.26559 3.99038C4.52159 5.13278 3.34079 7.06558 3.08479 9.13279C2.80319 11.1744 3.37919 13.3216 4.71039 14.9056C5.98399 16.448 7.93279 17.4144 9.94559 17.4816C11.824 17.5904 13.7856 17.0112 15.1552 15.696C16.2304 14.7712 16.7264 13.36 16.8864 11.9904C14.6592 11.9904 12.4288 12.0032 10.2016 11.9904V9.22559H19.584C20.0672 12.192 19.3696 15.5328 17.1136 17.6544C15.6096 19.1584 13.5296 20.0448 11.408 20.2176C9.35359 20.4192 7.23199 20.0288 5.40799 19.0368C3.21919 17.8688 1.47519 15.8944 0.617592 13.5744C-0.188808 11.44 -0.201608 9.02399 0.550392 6.87358C1.23519 4.91518 2.55039 3.18398 4.24319 1.97438C5.86559 0.780775 7.83999 0.121574 9.85279 0.00317383Z" fill="#3780FF"/>
<path id="Vector_2" d="M63.6768 0.700806H66.5504V19.8688C65.5968 19.8688 64.6304 19.8816 63.6768 19.856C63.6928 13.4784 63.6768 7.08802 63.6768 0.700806Z" fill="#38B137"/>
<path id="Vector_3" d="M25.9744 7.34399C27.744 7.00799 29.664 7.38559 31.1263 8.44479C32.4543 9.38558 33.3823 10.8608 33.6639 12.4704C34.0255 14.336 33.5711 16.3776 32.3615 17.8528C31.0591 19.504 28.9248 20.3904 26.8448 20.256C24.9376 20.1472 23.088 19.1968 21.9585 17.6384C20.6849 15.92 20.3745 13.5584 21.0721 11.5456C21.7729 9.38558 23.744 7.73439 25.9744 7.34399ZM26.3744 9.89438C25.648 10.0832 24.9792 10.4992 24.496 11.088C23.1936 12.6464 23.2736 15.1808 24.7104 16.6304C25.5296 17.4624 26.7648 17.8528 27.904 17.6224C28.9632 17.4336 29.8912 16.7232 30.4 15.7824C31.2863 14.1856 31.0303 11.984 29.6736 10.736C28.8064 9.93598 27.5296 9.59998 26.3744 9.89438Z" fill="#FA3913"/>
<path id="Vector_4" d="M40.2016 7.34399C42.2272 6.95359 44.4447 7.51999 45.9583 8.94079C48.4287 11.1552 48.6975 15.3024 46.5887 17.8528C45.3151 19.4624 43.248 20.3488 41.2064 20.256C39.2608 20.2016 37.3408 19.2352 36.1856 17.6384C34.8832 15.8816 34.6016 13.4624 35.3408 11.4112C36.08 9.31839 38.0128 7.72159 40.2016 7.34399ZM40.6048 9.89439C39.8784 10.0832 39.2096 10.4992 38.7264 11.0752C37.4368 12.6048 37.4912 15.1008 38.8736 16.5664C39.6928 17.44 40.9664 17.8688 42.1472 17.6256C43.1936 17.424 44.1343 16.7264 44.6431 15.7856C45.5167 14.176 45.2607 11.9744 43.8912 10.7264C43.0208 9.92319 41.744 9.59999 40.6048 9.89439Z" fill="#FCBD06"/>
<path id="Vector_5" d="M52.2688 8.12157C53.8112 7.15517 55.8656 6.88637 57.5296 7.71837C58.0544 7.94557 58.4832 8.33597 58.8992 8.72637C58.912 8.36477 58.8992 7.98717 58.912 7.61277C59.8112 7.62557 60.7104 7.61277 61.6225 7.62557V19.4656C61.6097 21.2512 61.1521 23.1423 59.8656 24.4447C58.4576 25.8815 56.2944 26.3231 54.3488 26.0287C52.2688 25.7215 50.4576 24.2047 49.6512 22.2847C50.4576 21.8944 51.3024 21.5871 52.1344 21.2256C52.6048 22.3263 53.5584 23.2671 54.752 23.4815C55.9456 23.6959 57.328 23.4015 58.1088 22.4063C58.9408 21.3856 58.9408 19.9904 58.8992 18.7424C58.2816 19.3472 57.5712 19.8848 56.7104 20.0832C54.8448 20.608 52.7904 19.9616 51.3536 18.7008C49.904 17.44 49.0464 15.4912 49.1264 13.5584C49.168 11.3728 50.4032 9.26397 52.2688 8.12157ZM55.0464 9.83997C54.2272 9.97437 53.4624 10.432 52.9376 11.0624C51.6768 12.5664 51.6768 14.9696 52.9504 16.4448C53.6768 17.3184 54.8416 17.8016 55.9712 17.68C57.0304 17.5712 58.0128 16.9024 58.5344 15.9744C59.4208 14.4032 59.2736 12.2688 58.0768 10.8992C57.3408 10.0576 56.16 9.63837 55.0464 9.83997Z" fill="#3780FF"/>
<path id="Vector_6" d="M70 8.80645C71.6096 7.30245 74.0928 6.79365 76.16 7.58405C78.1184 8.32325 79.3696 10.1888 80 12.1088C77.088 13.3184 74.1888 14.512 71.2736 15.7184C71.6768 16.4832 72.2944 17.1808 73.1264 17.4624C74.2944 17.8784 75.6896 17.7312 76.6688 16.9536C77.0592 16.6592 77.3664 16.2688 77.6608 15.8944C78.4 16.3904 79.136 16.8736 79.8752 17.3696C78.8288 18.9408 77.0688 20.0416 75.1776 20.2144C73.0848 20.4704 70.8544 19.664 69.5008 18.0256C67.2736 15.4528 67.4912 11.1296 70 8.80645ZM71.4368 11.2896C70.9792 11.9488 70.7936 12.752 70.8064 13.5456C72.752 12.7392 74.6976 11.936 76.6464 11.1168C76.3232 10.3648 75.5456 9.90725 74.7552 9.78885C73.4752 9.55845 72.1472 10.2432 71.4368 11.2896Z" fill="#FA3913"/>
</g>
<defs>
<clipPath id="clip0_93_3">
<rect width="80" height="26.112" fill="white"/>
</clipPath>
</defs>
</svg>
