<svg width="162" height="48" viewBox="0 0 162 48" fill="none" xmlns="http://www.w3.org/2000/svg">
<path d="M149.099 0.000156H12.908C12.4115 0.000156 11.921 0.000156 11.4259 0.002556C11.0115 0.004956 10.6003 0.011928 10.1819 0.017796C9.2728 0.0272782 8.36589 0.0981675 7.46899 0.229848C6.57336 0.364395 5.70578 0.618055 4.8956 0.982248C4.08641 1.34952 3.34704 1.82676 2.70429 2.39664C2.05817 2.96492 1.51958 3.62178 1.10923 4.34195C0.697744 5.06069 0.412419 5.83088 0.263109 6.62593C0.112379 7.41998 0.0312704 8.22318 0.0205099 9.02833C0.00794675 9.39625 0.00662003 9.7654 0 10.1334V37.8705C0.00662003 38.2431 0.00794675 38.604 0.0205099 38.9768C0.0312737 39.7819 0.112383 40.585 0.263109 41.379C0.412007 42.1745 0.697348 42.9452 1.10923 43.6642C1.51939 44.382 2.05806 45.0362 2.70429 45.6014C3.3446 46.1738 4.08445 46.6513 4.8956 47.0158C5.70577 47.381 6.57326 47.6361 7.46899 47.7728C8.36604 47.9034 9.27286 47.9743 10.1819 47.9849C10.6003 47.9931 11.0115 47.9978 11.4259 47.9978C11.921 48.0002 12.4115 48.0002 12.908 48.0002H149.099C149.586 48.0002 150.08 48.0002 150.567 47.9978C150.979 47.9978 151.402 47.9931 151.815 47.9849C152.722 47.9749 153.627 47.9039 154.522 47.7728C155.421 47.6352 156.292 47.3801 157.106 47.0158C157.916 46.6511 158.655 46.1736 159.295 45.6014C159.94 45.034 160.48 44.3803 160.895 43.6642C161.304 42.9447 161.586 42.1741 161.733 41.379C161.884 40.5849 161.968 39.7819 161.984 38.9768C161.989 38.604 161.989 38.2431 161.989 37.8705C162 37.4345 162 37.001 162 36.5579V11.4435C162 11.0041 162 10.5681 161.989 10.1334C161.989 9.7654 161.989 9.39625 161.984 9.02828C161.968 8.22306 161.884 7.42004 161.733 6.62588C161.586 5.83129 161.303 5.06116 160.895 4.3419C160.059 2.89839 158.734 1.72339 157.106 0.98214C156.292 0.618837 155.421 0.365245 154.522 0.22974C153.627 0.0974794 152.722 0.0265653 151.815 0.017628C151.402 0.011772 150.979 0.00474 150.567 0.0024C150.08 0 149.586 0 149.099 0V0.000156Z" fill="#A6A6A6"/>
<path d="M11.316 46.9538C10.9028 46.9538 10.4996 46.9491 10.0896 46.9409C9.2404 46.9312 8.39315 46.8657 7.55484 46.7452C6.77315 46.626 6.01591 46.4044 5.30809 46.0876C4.60675 45.7734 3.96708 45.3614 3.41358 44.8674C2.85206 44.3792 2.38457 43.813 2.02963 43.1912C1.67079 42.5654 1.42245 41.8946 1.29326 41.2022C1.15374 40.4582 1.07826 39.7058 1.06746 38.9517C1.05886 38.6986 1.04761 37.8558 1.04761 37.8558V10.1293C1.04761 10.1293 1.0596 9.29943 1.06753 9.05562C1.07787 8.30269 1.15291 7.55153 1.29201 6.80867C1.42144 6.11435 1.66997 5.44161 2.02901 4.81373C2.38264 4.19238 2.84753 3.62576 3.40567 3.13584C3.96318 2.64127 4.6049 2.22716 5.30742 1.90862C6.01362 1.59282 6.76943 1.37274 7.54954 1.25576C8.3906 1.13401 9.24079 1.06819 10.093 1.05884L11.3166 1.04419H150.684L151.922 1.05943C152.767 1.06831 153.609 1.13355 154.442 1.25458C155.23 1.37303 155.994 1.59464 156.708 1.91214C158.116 2.55409 159.261 3.56971 159.983 4.81666C160.337 5.4402 160.581 6.10746 160.709 6.79578C160.85 7.54474 160.929 8.30179 160.945 9.06091C160.949 9.40082 160.949 9.76593 160.949 10.1293C160.96 10.5794 160.96 11.0078 160.96 11.4397V36.5594C160.96 36.9954 160.96 37.4209 160.949 37.8499C160.949 38.2402 160.949 38.5978 160.944 38.9658C160.928 39.7113 160.85 40.4549 160.712 41.1904C160.585 41.8878 160.338 42.5639 159.98 43.1948C159.622 43.8099 159.157 44.3712 158.602 44.858C158.048 45.3547 157.407 45.7691 156.704 46.0853C155.992 46.4045 155.23 46.627 154.442 46.7452C153.604 46.8664 152.757 46.9318 151.908 46.9409C151.51 46.9491 151.094 46.9538 150.691 46.9538L149.221 46.9562L11.316 46.9538Z" fill="black"/>
<path d="M39.3568 24.3608C39.3697 23.3592 39.6357 22.3771 40.1301 21.506C40.6246 20.6348 41.3313 19.9029 42.1846 19.3783C41.6425 18.6041 40.9274 17.967 40.096 17.5175C39.2646 17.0681 38.3399 16.8187 37.3952 16.7891C35.3801 16.5776 33.4266 17.9949 32.3998 17.9949C31.353 17.9949 29.772 16.8101 28.0695 16.8451C26.9683 16.8807 25.8951 17.2009 24.9545 17.7746C24.0138 18.3483 23.2378 19.1558 22.702 20.1186C20.3812 24.1367 22.1124 30.0419 24.3355 33.2899C25.4478 34.8803 26.7477 36.6568 28.4486 36.5938C30.1131 36.5248 30.7348 35.5324 32.7439 35.5324C34.7344 35.5324 35.3177 36.5938 37.0531 36.5538C38.8392 36.5248 39.9645 34.9563 41.0377 33.3508C41.8369 32.2176 42.4519 30.9651 42.8598 29.6398C41.8222 29.2009 40.9367 28.4663 40.3137 27.5275C39.6908 26.5888 39.358 25.4874 39.3568 24.3608Z" fill="white"/>
<path d="M36.0788 14.6531C37.0526 13.484 37.5324 11.9814 37.4162 10.4644C35.9284 10.6206 34.5541 11.3317 33.5671 12.4559C33.0845 13.0051 32.715 13.644 32.4795 14.3361C32.244 15.0283 32.1472 15.76 32.1947 16.4896C32.9388 16.4972 33.675 16.3359 34.3478 16.0178C35.0206 15.6997 35.6125 15.2331 36.0788 14.6531Z" fill="white"/>
<path d="M60.3968 32.5677H54.7168L53.3527 36.5954H50.9468L56.3269 21.6938H58.8265L64.2066 36.5954H61.7597L60.3968 32.5677ZM55.305 30.7091H59.8074L57.5879 24.1724H57.5258L55.305 30.7091Z" fill="white"/>
<path d="M75.8258 31.1637C75.8258 34.5399 74.0187 36.709 71.2918 36.709C70.601 36.7452 69.914 36.5861 69.3094 36.2499C68.7049 35.9137 68.2072 35.4141 67.8734 34.8082H67.8218V40.1895H65.5917V25.7309H67.7504V27.5379H67.7914C68.1405 26.935 68.6466 26.438 69.2558 26.0997C69.8649 25.7615 70.5544 25.5948 71.2508 25.6172C74.0081 25.6172 75.8258 27.7969 75.8258 31.1637ZM73.5336 31.1637C73.5336 28.9641 72.3968 27.518 70.6625 27.518C68.9586 27.518 67.8125 28.9946 67.8125 31.1637C67.8125 33.3528 68.9586 34.8188 70.6625 34.8188C72.3969 34.8188 73.5336 33.3833 73.5336 31.1637Z" fill="white"/>
<path d="M87.7836 31.1637C87.7836 34.5399 85.9766 36.709 83.2496 36.709C82.5588 36.7452 81.8718 36.586 81.2673 36.2499C80.6627 35.9137 80.165 35.4141 79.8312 34.8082H79.7796V40.1895H77.5496V25.7309H79.7081V27.5379H79.7492C80.0983 26.935 80.6044 26.4379 81.2135 26.0997C81.8227 25.7615 82.5122 25.5948 83.2085 25.6172C85.966 25.6172 87.7836 27.7969 87.7836 31.1637ZM85.4914 31.1637C85.4914 28.9641 84.3547 27.518 82.6203 27.518C80.9164 27.518 79.7703 28.9946 79.7703 31.1637C79.7703 33.3528 80.9164 34.8188 82.6203 34.8188C84.3547 34.8188 85.4914 33.3833 85.4914 31.1637H85.4914Z" fill="white"/>
<path d="M95.6867 32.4434C95.8519 33.9212 97.2875 34.8914 99.2492 34.8914C101.129 34.8914 102.481 33.9211 102.481 32.5887C102.481 31.432 101.666 30.7395 99.7343 30.2649L97.8031 29.7996C95.0667 29.1387 93.7964 27.859 93.7964 25.7824C93.7964 23.2113 96.0371 21.4453 99.2187 21.4453C102.367 21.4453 104.526 23.2113 104.599 25.7824H102.348C102.213 24.2953 100.984 23.3977 99.187 23.3977C97.3905 23.3977 96.1612 24.3059 96.1612 25.6277C96.1612 26.6813 96.9464 27.3012 98.8671 27.7757L100.509 28.1789C103.566 28.9019 104.837 30.1301 104.837 32.3097C104.837 35.0976 102.616 36.8437 99.0839 36.8437C95.7792 36.8437 93.548 35.1386 93.4038 32.4433L95.6867 32.4434Z" fill="white"/>
<path d="M109.65 23.1599V25.731H111.716V27.497H109.65V33.4865C109.65 34.4169 110.063 34.8505 110.971 34.8505C111.217 34.8463 111.462 34.829 111.705 34.7989V36.5544C111.297 36.6307 110.882 36.6653 110.466 36.6575C108.267 36.6575 107.409 35.8314 107.409 33.7243V27.497H105.829V25.731H107.409V23.1599H109.65Z" fill="white"/>
<path d="M112.912 31.1638C112.912 27.7455 114.925 25.5974 118.065 25.5974C121.215 25.5974 123.219 27.7454 123.219 31.1638C123.219 34.5916 121.225 36.7302 118.065 36.7302C114.905 36.7302 112.912 34.5915 112.912 31.1638ZM120.946 31.1638C120.946 28.8189 119.872 27.4349 118.065 27.4349C116.258 27.4349 115.184 28.8294 115.184 31.1638C115.184 33.5181 116.258 34.8916 118.065 34.8916C119.872 34.8916 120.946 33.5181 120.946 31.1638H120.946Z" fill="white"/>
<path d="M125.057 25.7308H127.184V27.58H127.236C127.38 27.0025 127.718 26.4921 128.194 26.1346C128.67 25.7771 129.254 25.5944 129.849 25.6171C130.106 25.6162 130.363 25.6441 130.613 25.7003V27.7863C130.289 27.6871 129.95 27.6416 129.611 27.6515C129.287 27.6384 128.964 27.6955 128.665 27.819C128.365 27.9424 128.095 28.1293 127.874 28.3668C127.654 28.6042 127.487 28.8867 127.386 29.1947C127.284 29.5027 127.251 29.829 127.287 30.1511V36.5953H125.057L125.057 25.7308Z" fill="white"/>
<path d="M140.895 33.4044C140.595 35.3767 138.675 36.7302 136.217 36.7302C133.057 36.7302 131.095 34.6126 131.095 31.2154C131.095 27.8076 133.067 25.5974 136.123 25.5974C139.129 25.5974 141.019 27.6623 141.019 30.9564V31.7205H133.346V31.8552C133.311 32.2551 133.361 32.6579 133.493 33.0369C133.625 33.4159 133.836 33.7624 134.113 34.0535C134.389 34.3445 134.724 34.5734 135.096 34.725C135.468 34.8766 135.868 34.9473 136.269 34.9326C136.796 34.9819 137.325 34.8599 137.777 34.5846C138.229 34.3092 138.58 33.8953 138.778 33.4044L140.895 33.4044ZM133.357 30.1619H138.788C138.808 29.8023 138.754 29.4426 138.628 29.1051C138.502 28.7677 138.308 28.4598 138.058 28.2009C137.808 27.942 137.507 27.7376 137.174 27.6005C136.841 27.4635 136.483 27.3967 136.123 27.4044C135.76 27.4023 135.4 27.4721 135.064 27.6097C134.728 27.7474 134.423 27.9503 134.165 28.2067C133.908 28.463 133.704 28.7678 133.565 29.1034C133.427 29.439 133.356 29.7987 133.357 30.1619V30.1619Z" fill="white"/>
<path d="M55.0255 10.4774C55.4931 10.4438 55.9622 10.5144 56.3992 10.6842C56.8361 10.8539 57.2299 11.1185 57.5522 11.4588C57.8745 11.7992 58.1173 12.2068 58.263 12.6523C58.4086 13.0978 58.4536 13.5702 58.3947 14.0352C58.3947 16.3227 57.1584 17.6376 55.0255 17.6376H52.4392V10.4774H55.0255ZM53.5513 16.625H54.9013C55.2354 16.6449 55.5697 16.5902 55.88 16.4646C56.1902 16.3391 56.4686 16.1459 56.6948 15.8993C56.921 15.6526 57.0893 15.3586 57.1875 15.0386C57.2858 14.7187 57.3114 14.3809 57.2626 14.0498C57.3079 13.72 57.2796 13.3842 57.1799 13.0666C57.0801 12.749 56.9114 12.4574 56.6857 12.2127C56.46 11.968 56.183 11.7762 55.8745 11.6512C55.566 11.5261 55.2337 11.4708 54.9013 11.4892H53.5513V16.625Z" fill="white"/>
<path d="M59.6509 14.9333C59.6169 14.5782 59.6576 14.2199 59.7702 13.8814C59.8828 13.5429 60.0649 13.2317 60.3048 12.9678C60.5447 12.7038 60.8372 12.4929 61.1634 12.3485C61.4896 12.2042 61.8424 12.1296 62.1992 12.1296C62.5559 12.1296 62.9087 12.2042 63.2349 12.3485C63.5611 12.4929 63.8536 12.7038 64.0935 12.9678C64.3334 13.2317 64.5155 13.5429 64.6281 13.8814C64.7407 14.2199 64.7814 14.5782 64.7474 14.9333C64.782 15.2888 64.7419 15.6475 64.6296 15.9866C64.5172 16.3256 64.3352 16.6374 64.0953 16.9019C63.8553 17.1664 63.5626 17.3777 63.236 17.5224C62.9095 17.667 62.5563 17.7417 62.1992 17.7417C61.842 17.7417 61.4888 17.667 61.1623 17.5224C60.8357 17.3777 60.543 17.1664 60.303 16.9019C60.0631 16.6374 59.8811 16.3256 59.7687 15.9866C59.6564 15.6475 59.6163 15.2888 59.6509 14.9333ZM63.6505 14.9333C63.6505 13.762 63.1243 13.077 62.2009 13.077C61.274 13.077 60.7525 13.762 60.7525 14.9333C60.7525 16.114 61.274 16.7937 62.2009 16.7937C63.1244 16.7936 63.6505 16.1093 63.6505 14.9333H63.6505Z" fill="white"/>
<path d="M71.522 17.6374H70.4158L69.299 13.6577H69.2146L68.1025 17.6374H67.0068L65.5173 12.2339H66.599L67.5669 16.3571H67.6466L68.7576 12.2339H69.7806L70.8916 16.3571H70.9759L71.9392 12.2339H73.0056L71.522 17.6374Z" fill="white"/>
<path d="M74.2584 12.2339H75.2849V13.0923H75.3646C75.4998 12.784 75.7278 12.5255 76.0169 12.353C76.3059 12.1804 76.6416 12.1023 76.9771 12.1296C77.24 12.1098 77.504 12.1495 77.7496 12.2456C77.9951 12.3417 78.2158 12.4918 78.3954 12.6848C78.5751 12.8778 78.7089 13.1088 78.7872 13.3606C78.8654 13.6124 78.886 13.8785 78.8474 14.1393V17.6373H77.781V14.4071C77.781 13.5388 77.4037 13.1069 76.615 13.1069C76.4365 13.0986 76.2583 13.129 76.0926 13.196C75.927 13.263 75.7777 13.365 75.6552 13.4951C75.5326 13.6251 75.4397 13.7802 75.3826 13.9495C75.3256 14.1189 75.3059 14.2986 75.3248 14.4763V17.6374H74.2584L74.2584 12.2339Z" fill="white"/>
<path d="M80.5466 10.1245H81.613V17.6374H80.5466V10.1245Z" fill="white"/>
<path d="M83.0955 14.9334C83.0615 14.5783 83.1022 14.22 83.2148 13.8815C83.3274 13.543 83.5096 13.2318 83.7495 12.9678C83.9895 12.7038 84.282 12.4929 84.6082 12.3485C84.9344 12.2042 85.2873 12.1296 85.644 12.1296C86.0007 12.1296 86.3536 12.2042 86.6798 12.3485C87.006 12.4929 87.2985 12.7038 87.5385 12.9678C87.7784 13.2318 87.9606 13.543 88.0732 13.8815C88.1858 14.22 88.2265 14.5783 88.1925 14.9334C88.2271 15.2889 88.1869 15.6477 88.0746 15.9867C87.9622 16.3257 87.7802 16.6375 87.5402 16.902C87.3002 17.1665 87.0075 17.3778 86.6809 17.5225C86.3544 17.6671 86.0012 17.7418 85.644 17.7418C85.2868 17.7418 84.9336 17.6671 84.6071 17.5225C84.2805 17.3778 83.9878 17.1665 83.7478 16.902C83.5078 16.6375 83.3258 16.3257 83.2134 15.9867C83.1011 15.6477 83.0609 15.2889 83.0955 14.9334ZM87.0951 14.9334C87.0951 13.7621 86.5689 13.0771 85.6455 13.0771C84.7185 13.0771 84.1971 13.7621 84.1971 14.9334C84.1971 16.1141 84.7185 16.7938 85.6455 16.7938C86.5689 16.7937 87.0951 16.1094 87.0951 14.9334H87.0951Z" fill="white"/>
<path d="M89.3152 16.1093C89.3152 15.1367 90.0394 14.5759 91.3249 14.4962L92.7886 14.4119V13.9455C92.7886 13.3747 92.4113 13.0525 91.6824 13.0525C91.0871 13.0525 90.6746 13.271 90.5562 13.6531H89.5238C89.6328 12.7249 90.5058 12.1296 91.7316 12.1296C93.0863 12.1296 93.8503 12.804 93.8503 13.9455V17.6374H92.8238V16.8781H92.7394C92.5681 17.1505 92.3277 17.3725 92.0425 17.5216C91.7574 17.6706 91.4378 17.7413 91.1164 17.7265C90.8895 17.7501 90.6602 17.7259 90.4433 17.6554C90.2264 17.585 90.0267 17.4699 89.857 17.3175C89.6873 17.1652 89.5514 16.9789 89.4581 16.7708C89.3648 16.5627 89.3161 16.3374 89.3152 16.1093ZM92.7886 15.6476V15.1958L91.4691 15.2802C90.7249 15.33 90.3874 15.5831 90.3874 16.0595C90.3874 16.5458 90.8093 16.8288 91.3894 16.8288C91.5594 16.846 91.7311 16.8289 91.8943 16.7784C92.0575 16.7279 92.2089 16.645 92.3394 16.5348C92.47 16.4246 92.577 16.2893 92.6542 16.1369C92.7314 15.9844 92.7771 15.818 92.7886 15.6476Z" fill="white"/>
<path d="M95.2519 14.9333C95.2519 13.2259 96.1296 12.1443 97.4949 12.1443C97.8326 12.1287 98.1677 12.2096 98.4611 12.3775C98.7546 12.5453 98.9942 12.7933 99.1519 13.0923H99.2316V10.1245H100.298V17.6374H99.2761V16.7837H99.1917C99.0218 17.0807 98.7739 17.3255 98.4748 17.4917C98.1757 17.6579 97.8368 17.7391 97.4949 17.7265C96.1203 17.7265 95.2519 16.6448 95.2519 14.9333ZM96.3535 14.9333C96.3535 16.0794 96.8937 16.7691 97.7973 16.7691C98.6961 16.7691 99.2515 16.0695 99.2515 14.938C99.2515 13.8118 98.6902 13.1023 97.7973 13.1023C96.8996 13.1023 96.3535 13.7966 96.3535 14.9333H96.3535Z" fill="white"/>
<path d="M104.71 14.9333C104.676 14.5782 104.717 14.2199 104.829 13.8814C104.942 13.5429 105.124 13.2317 105.364 12.9678C105.604 12.7038 105.896 12.4929 106.223 12.3485C106.549 12.2042 106.902 12.1296 107.258 12.1296C107.615 12.1296 107.968 12.2042 108.294 12.3485C108.62 12.4929 108.913 12.7038 109.153 12.9678C109.393 13.2317 109.575 13.5429 109.687 13.8814C109.8 14.2199 109.841 14.5782 109.807 14.9333C109.841 15.2888 109.801 15.6475 109.689 15.9866C109.576 16.3256 109.394 16.6374 109.154 16.9019C108.914 17.1664 108.622 17.3777 108.295 17.5224C107.969 17.667 107.616 17.7417 107.258 17.7417C106.901 17.7417 106.548 17.667 106.221 17.5224C105.895 17.3777 105.602 17.1664 105.362 16.9019C105.122 16.6374 104.94 16.3256 104.828 15.9866C104.716 15.6475 104.675 15.2888 104.71 14.9333ZM108.71 14.9333C108.71 13.762 108.184 13.077 107.26 13.077C106.333 13.077 105.812 13.762 105.812 14.9333C105.812 16.114 106.333 16.7937 107.26 16.7937C108.184 16.7936 108.71 16.1093 108.71 14.9333Z" fill="white"/>
<path d="M111.237 12.2339H112.264V13.0923H112.344C112.479 12.784 112.707 12.5255 112.996 12.353C113.285 12.1804 113.621 12.1023 113.956 12.1296C114.219 12.1098 114.483 12.1495 114.729 12.2456C114.974 12.3417 115.195 12.4918 115.375 12.6848C115.554 12.8778 115.688 13.1088 115.766 13.3606C115.845 13.6124 115.865 13.8785 115.826 14.1393V17.6373H114.76V14.4071C114.76 13.5388 114.383 13.1069 113.594 13.1069C113.416 13.0986 113.237 13.129 113.072 13.196C112.906 13.263 112.757 13.365 112.634 13.4951C112.512 13.6251 112.419 13.7802 112.362 13.9495C112.305 14.1189 112.285 14.2986 112.304 14.4763V17.6374H111.237V12.2339Z" fill="white"/>
<path d="M121.852 10.8887V12.2586H123.023V13.1568H121.852V15.9354C121.852 16.5014 122.085 16.7492 122.616 16.7492C122.752 16.7488 122.888 16.7406 123.023 16.7246V17.6129C122.831 17.6471 122.637 17.6654 122.443 17.6674C121.257 17.6674 120.785 17.2502 120.785 16.2084V13.1568H119.927V12.2585H120.785V10.8887H121.852Z" fill="white"/>
<path d="M124.48 10.1245H125.537V13.1023H125.621C125.763 12.7911 125.997 12.5312 126.292 12.3579C126.587 12.1847 126.928 12.1066 127.269 12.1343C127.53 12.1201 127.792 12.1637 128.034 12.2622C128.277 12.3606 128.495 12.5114 128.673 12.7038C128.851 12.8962 128.984 13.1255 129.063 13.3753C129.142 13.625 129.164 13.8891 129.13 14.1487V17.6374H128.062V14.4118C128.062 13.5487 127.66 13.1116 126.907 13.1116C126.723 13.0966 126.539 13.1218 126.366 13.1854C126.194 13.2491 126.037 13.3497 125.908 13.4802C125.778 13.6107 125.679 13.7679 125.616 13.9409C125.554 14.1138 125.53 14.2984 125.546 14.4815V17.6374H124.48L124.48 10.1245Z" fill="white"/>
<path d="M135.348 16.1783C135.203 16.6722 134.889 17.0993 134.461 17.3851C134.033 17.6709 133.518 17.7971 133.006 17.7416C132.65 17.751 132.296 17.6828 131.969 17.5418C131.642 17.4007 131.35 17.1902 131.113 16.9249C130.875 16.6595 130.698 16.3456 130.594 16.005C130.49 15.6645 130.461 15.3053 130.51 14.9525C130.463 14.5987 130.492 14.2388 130.596 13.8971C130.699 13.5555 130.875 13.2402 131.112 12.9725C131.348 12.7048 131.639 12.491 131.965 12.3456C132.291 12.2001 132.644 12.1264 133.002 12.1295C134.505 12.1295 135.412 13.1567 135.412 14.8535V15.2256H131.596V15.2854C131.58 15.4836 131.605 15.6832 131.67 15.8713C131.735 16.0594 131.838 16.2319 131.974 16.3776C132.109 16.5234 132.274 16.6392 132.456 16.7177C132.639 16.7962 132.837 16.8356 133.035 16.8334C133.291 16.864 133.549 16.818 133.778 16.7014C134.007 16.5847 134.196 16.4027 134.321 16.1783L135.348 16.1783ZM131.596 14.4369H134.326C134.339 14.2556 134.314 14.0734 134.253 13.9021C134.192 13.7309 134.096 13.5743 133.971 13.4425C133.845 13.3106 133.694 13.2065 133.526 13.1367C133.358 13.0668 133.177 13.0329 132.996 13.0371C132.811 13.0348 132.628 13.0694 132.457 13.1389C132.286 13.2085 132.131 13.3115 132.001 13.442C131.87 13.5724 131.767 13.7277 131.698 13.8985C131.629 14.0694 131.594 14.2525 131.596 14.4369H131.596Z" fill="white"/>
</svg>
