<svg xmlns="http://www.w3.org/2000/svg" width="180" height="54" viewBox="0 0 180 54" fill="none">
  <g clip-path="url(#clip0_124_80)">
    <path d="M173.333 53.6666H6.66667C2.93333 53.6666 0 50.7332 0 46.9999V6.99992C0 3.26658 2.93333 0.333252 6.66667 0.333252H173.333C177.067 0.333252 180 3.26658 180 6.99992V46.9999C180 50.7332 177.067 53.6666 173.333 53.6666Z" fill="white"/>
    <path d="M173.333 1.39992C176.4 1.39992 178.933 3.93325 178.933 6.99992V46.9999C178.933 50.0666 176.4 52.5999 173.333 52.5999H6.66667C3.6 52.5999 1.06667 50.0666 1.06667 46.9999V6.99992C1.06667 3.93325 3.6 1.39992 6.66667 1.39992H173.333ZM173.333 0.333252H6.66667C2.93333 0.333252 0 3.39992 0 6.99992V46.9999C0 50.7333 2.93333 53.6666 6.66667 53.6666H173.333C177.067 53.6666 180 50.7333 180 46.9999V6.99992C180 3.39992 177.067 0.333252 173.333 0.333252Z" fill="white"/>
    <path d="M63.2 13.9332C63.2 14.9999 62.9333 15.9332 62.2666 16.5999C61.4666 17.3999 60.5333 17.7999 59.3333 17.7999C58.1333 17.7999 57.2 17.3999 56.4 16.5999C55.6 15.7999 55.2 14.8665 55.2 13.6665C55.2 12.4665 55.6 11.5332 56.4 10.7332C57.2 9.9332 58.1333 9.5332 59.3333 9.5332C59.8666 9.5332 60.4 9.66654 60.9333 9.9332C61.4666 10.1999 61.8666 10.4665 62.1333 10.8665L61.4666 11.5332C60.9333 10.8665 60.2666 10.5999 59.3333 10.5999C58.5333 10.5999 57.7333 10.8665 57.2 11.5332C56.5333 12.0665 56.2666 12.8665 56.2666 13.7999C56.2666 14.7332 56.5333 15.5332 57.2 16.0665C57.8666 16.5999 58.5333 16.9999 59.3333 16.9999C60.2666 16.9999 60.9333 16.7332 61.6 16.0665C62 15.6665 62.2666 15.1332 62.2666 14.4665H59.3333V13.3999H63.2V13.9332ZM69.3333 10.5999H65.7333V13.1332H69.0666V14.0665H65.7333V16.5999H69.3333V17.6665H64.6666V9.66654H69.3333V10.5999ZM73.7333 17.6665H72.6666V10.5999H70.3999V9.66654H75.9999V10.5999H73.7333V17.6665ZM79.8666 17.6665V9.66654H80.9332V17.6665H79.8666ZM85.4666 17.6665H84.3999V10.5999H82.1332V9.66654H87.5999V10.5999H85.3332V17.6665H85.4666ZM98.1332 16.5999C97.3332 17.3999 96.3999 17.7999 95.1999 17.7999C93.9999 17.7999 93.0665 17.3999 92.2665 16.5999C91.4665 15.7999 91.0665 14.8665 91.0665 13.6665C91.0665 12.4665 91.4665 11.5332 92.2665 10.7332C93.0665 9.9332 93.9999 9.5332 95.1999 9.5332C96.3999 9.5332 97.3332 9.9332 98.1332 10.7332C98.9332 11.5332 99.3332 12.4665 99.3332 13.6665C99.3332 14.8665 98.9332 15.7999 98.1332 16.5999ZM93.0665 15.9332C93.5999 16.4665 94.3999 16.8665 95.1999 16.8665C95.9999 16.8665 96.7999 16.5999 97.3332 15.9332C97.8665 15.3999 98.2665 14.5999 98.2665 13.6665C98.2665 12.7332 97.9999 11.9332 97.3332 11.3999C96.7999 10.8665 95.9999 10.4665 95.1999 10.4665C94.3999 10.4665 93.5999 10.7332 93.0665 11.3999C92.5332 11.9332 92.1332 12.7332 92.1332 13.6665C92.1332 14.5999 92.3999 15.3999 93.0665 15.9332ZM100.8 17.6665V9.66654H102L105.867 15.9332V9.66654H106.933V17.6665H105.867L101.733 11.1332V17.6665H100.8Z" fill="black"/>
    <path d="M90.7999 29.4C87.5999 29.4 85.0666 31.8 85.0666 35.1333C85.0666 38.3333 87.5999 40.8666 90.7999 40.8666C93.9999 40.8666 96.5332 38.4666 96.5332 35.1333C96.5332 31.6666 93.9999 29.4 90.7999 29.4ZM90.7999 38.4666C89.0666 38.4666 87.5999 37 87.5999 35C87.5999 33 89.0666 31.5333 90.7999 31.5333C92.5332 31.5333 93.9999 32.8666 93.9999 35C93.9999 37 92.5332 38.4666 90.7999 38.4666ZM78.3999 29.4C75.1999 29.4 72.6666 31.8 72.6666 35.1333C72.6666 38.3333 75.1999 40.8666 78.3999 40.8666C81.5999 40.8666 84.1333 38.4666 84.1333 35.1333C84.1333 31.6666 81.5999 29.4 78.3999 29.4ZM78.3999 38.4666C76.6666 38.4666 75.1999 37 75.1999 35C75.1999 33 76.6666 31.5333 78.3999 31.5333C80.1333 31.5333 81.5999 32.8666 81.5999 35C81.5999 37 80.1333 38.4666 78.3999 38.4666ZM63.6 31.1333V33.5333H69.3333C69.2 34.8666 68.6666 35.9333 68 36.6C67.2 37.4 65.8666 38.3333 63.6 38.3333C60 38.3333 57.3333 35.5333 57.3333 31.9333C57.3333 28.3333 60.1333 25.5333 63.6 25.5333C65.4666 25.5333 66.9333 26.3333 68 27.2666L69.7333 25.5333C68.2666 24.2 66.4 23.1333 63.7333 23.1333C58.9333 23.1333 54.8 27.1333 54.8 31.9333C54.8 36.7333 58.9333 40.7333 63.7333 40.7333C66.4 40.7333 68.2666 39.9333 69.8666 38.2C71.4666 36.6 72 34.3333 72 32.6C72 32.0666 72 31.5333 71.8666 31.1333H63.6ZM124.133 33C123.6 31.6666 122.267 29.4 119.333 29.4C116.4 29.4 114 31.6666 114 35.1333C114 38.3333 116.4 40.8666 119.6 40.8666C122.133 40.8666 123.733 39.2666 124.266 38.3333L122.4 37C121.733 37.9333 120.933 38.6 119.6 38.6C118.267 38.6 117.467 38.0666 116.8 36.8666L124.4 33.6666L124.133 33ZM116.4 34.8666C116.4 32.7333 118.133 31.5333 119.333 31.5333C120.267 31.5333 121.2 32.0666 121.466 32.7333L116.4 34.8666ZM110.133 40.3333H112.667V23.6666H110.133V40.3333ZM106.133 30.6C105.467 29.9333 104.4 29.2666 103.067 29.2666C100.267 29.2666 97.5999 31.8 97.5999 35C97.5999 38.2 100.133 40.6 103.067 40.6C104.4 40.6 105.467 39.9333 106 39.2666H106.133V40.0666C106.133 42.2 104.933 43.4 103.067 43.4C101.6 43.4 100.533 42.3333 100.267 41.4L98.1332 42.3333C98.7999 43.8 100.4 45.6666 103.2 45.6666C106.133 45.6666 108.533 43.9333 108.533 39.8V29.6666H106.133V30.6ZM103.2 38.4666C101.467 38.4666 99.9999 37 99.9999 35C99.9999 33 101.467 31.5333 103.2 31.5333C104.933 31.5333 106.267 33 106.267 35C106.267 37 104.933 38.4666 103.2 38.4666ZM135.733 23.6666H129.733V40.3333H132.266V34.0666H135.733C138.533 34.0666 141.2 32.0666 141.2 28.8666C141.2 25.6666 138.533 23.6666 135.733 23.6666ZM135.866 31.6666H132.266V25.9333H135.866C137.733 25.9333 138.8 27.5333 138.8 28.7333C138.666 30.2 137.6 31.6666 135.866 31.6666ZM151.2 29.2666C149.333 29.2666 147.466 30.0666 146.8 31.8L149.066 32.7333C149.6 31.8 150.4 31.5333 151.333 31.5333C152.666 31.5333 153.866 32.3333 154 33.6666V33.8C153.6 33.5333 152.533 33.1333 151.466 33.1333C149.066 33.1333 146.666 34.4666 146.666 36.8666C146.666 39.1333 148.666 40.6 150.8 40.6C152.533 40.6 153.333 39.8 154 39H154.133V40.3333H156.533V33.9333C156.266 31 154 29.2666 151.2 29.2666ZM150.933 38.4666C150.133 38.4666 148.933 38.0666 148.933 37C148.933 35.6666 150.4 35.2666 151.6 35.2666C152.666 35.2666 153.2 35.5333 153.866 35.8C153.6 37.4 152.266 38.4666 150.933 38.4666ZM164.933 29.6666L162.133 36.8666H162L159.066 29.6666H156.4L160.8 39.8L158.266 45.4H160.8L167.6 29.6666H164.933ZM142.533 40.3333H145.066V23.6666H142.533V40.3333Z" fill="black"/>
    <path d="M13.8667 10.3335C13.4667 10.7335 13.3333 11.4002 13.3333 12.2002V41.6668C13.3333 42.4668 13.6 43.1335 14 43.5335L14.1333 43.6668L30.6666 27.1335V26.8668L13.8667 10.3335Z" fill="url(#paint0_linear_124_80)"/>
    <path d="M35.9999 32.733L30.5333 27.2663V26.8663L35.9999 21.3997L36.1333 21.533L42.6666 25.2663C44.5333 26.333 44.5333 28.0663 42.6666 29.133L35.9999 32.733Z" fill="url(#paint1_linear_124_80)"/>
    <path d="M36.1334 32.6L30.5334 27L13.8667 43.6667C14.5333 44.3334 15.4667 44.3334 16.6667 43.8001L36.1334 32.6Z" fill="url(#paint2_linear_124_80)"/>
    <path d="M36.1334 21.3998L16.6667 10.3331C15.4667 9.66641 14.5333 9.79974 13.8667 10.4664L30.5334 26.9998L36.1334 21.3998Z" fill="url(#paint3_linear_124_80)"/>
    <path opacity="0.2" d="M36 32.4666L16.6667 43.3999C15.6 44.0666 14.6667 43.9333 14 43.3999L13.8667 43.5333L14 43.6666C14.6667 44.1999 15.6 44.3333 16.6667 43.6666L36 32.4666Z" fill="black"/>
    <path opacity="0.2" d="M13.8667 43.4C13.4667 43 13.3333 42.3334 13.3333 41.5334V41.6667C13.3333 42.4667 13.6 43.1334 14 43.5334V43.4H13.8667ZM42.6667 28.7333L36.0001 32.4667L36.1334 32.6L42.6667 28.8667C43.6001 28.3333 44.0001 27.6667 44.0001 27C44.0001 27.6667 43.4667 28.2 42.6667 28.7333Z" fill="black"/>
    <path opacity="0.2" d="M16.6667 10.4665L42.6667 25.2666C43.4667 25.7999 44.0001 26.3332 44.0001 26.9999C44.0001 26.3332 43.6001 25.6666 42.6667 25.1332L16.6667 10.3332C14.8 9.26654 13.3333 10.0665 13.3333 12.1999V12.3332C13.3333 10.3332 14.8 9.39987 16.6667 10.4665Z" fill="white"/>
  </g>
  <defs>
    <linearGradient id="paint0_linear_124_80" x1="29.0666" y1="11.9468" x2="6.68932" y2="34.3228" gradientUnits="userSpaceOnUse">
      <stop stop-color="#00A0FF"/>
      <stop offset="0.007" stop-color="#00A1FF"/>
      <stop offset="0.26" stop-color="#00BEFF"/>
      <stop offset="0.512" stop-color="#00D2FF"/>
      <stop offset="0.76" stop-color="#00DFFF"/>
      <stop offset="1" stop-color="#00E3FF"/>
    </linearGradient>
    <linearGradient id="paint1_linear_124_80" x1="45.112" y1="27.001" x2="12.8492" y2="27.001" gradientUnits="userSpaceOnUse">
      <stop stop-color="#FFE000"/>
      <stop offset="0.409" stop-color="#FFBD00"/>
      <stop offset="0.775" stop-color="#FFA500"/>
      <stop offset="1" stop-color="#FF9C00"/>
    </linearGradient>
    <linearGradient id="paint2_linear_124_80" x1="33.1027" y1="30.0613" x2="2.7586" y2="60.4054" gradientUnits="userSpaceOnUse">
      <stop stop-color="#FF3A44"/>
      <stop offset="1" stop-color="#C31162"/>
    </linearGradient>
    <linearGradient id="paint3_linear_124_80" x1="9.72932" y1="0.567707" x2="23.28" y2="14.1184" gradientUnits="userSpaceOnUse">
      <stop stop-color="#32A071"/>
      <stop offset="0.069" stop-color="#2DA771"/>
      <stop offset="0.476" stop-color="#15CF74"/>
      <stop offset="0.801" stop-color="#06E775"/>
      <stop offset="1" stop-color="#00F076"/>
    </linearGradient>
    <clipPath id="clip0_124_80">
      <rect width="180" height="53.352" fill="white" transform="translate(0 0.323975)"/>
    </clipPath>
  </defs>
</svg>