<svg width="81" height="24" viewBox="0 0 81 24" fill="none" xmlns="http://www.w3.org/2000/svg">
<g id="hubspot 1" clip-path="url(#clip0_93_23)">
<path id="Vector" d="M0.180878 4.74023H2.97025V10.9374H8.85322V4.74023H11.6462V19.9524H8.85322V13.6251H2.97025V19.9524H0.180878V4.74023ZM20.4829 14.9976C20.4829 16.271 19.4454 17.3073 18.1723 17.3073C16.8987 17.3073 15.8618 16.271 15.8618 14.9976V8.4482H13.2165V14.9976C13.2165 17.7299 15.4398 19.9524 18.1723 19.9524C20.9042 19.9524 23.1273 17.7299 23.1273 14.9976V8.4482H20.4829V14.9976ZM30.512 8.52492C29.1998 8.52492 28.2838 8.9057 27.3993 9.77398V4.74023H24.7454V14.0691C24.7454 17.561 27.2701 19.9524 30.1065 19.9524C33.2598 19.9524 36.0226 17.5184 36.0226 14.2388C36.0226 11.0009 33.4749 8.52492 30.512 8.52492ZM30.5779 17.4973C28.7796 17.4973 27.4045 15.9954 27.4045 14.2388C27.4045 12.482 28.7796 10.9796 30.5779 10.9796C32.1017 10.9796 33.4776 12.482 33.4776 14.2388C33.4776 15.9954 32.1017 17.4973 30.5779 17.4973ZM40.4799 9.19352C40.4799 7.85945 41.3688 7.43648 42.342 7.43648C43.1254 7.43648 44.1621 8.02898 44.8387 8.74867L46.5735 6.71727C45.7065 5.55352 43.9504 4.74914 42.5113 4.74914C39.6331 4.74914 37.5592 6.42102 37.5592 9.19352C37.5592 14.3357 43.8868 12.7057 43.8868 15.5845C43.8868 16.4723 43.0195 17.256 42.0254 17.256C40.4588 17.256 39.9507 16.4941 39.2315 15.6898L37.3054 17.6787C38.5335 19.1813 40.0567 19.9435 41.8768 19.9435C44.6065 19.9435 46.8074 18.2505 46.8074 15.6049C46.8074 9.89148 40.4799 11.6693 40.4799 9.19352ZM53.794 8.37586C50.9579 8.37586 48.4329 10.7659 48.4329 14.2585V23.6115H51.0867V18.5538C51.9713 19.4215 52.8868 19.8029 54.1995 19.8029C57.1623 19.8029 59.7102 17.3273 59.7102 14.0893C59.7102 10.8093 56.9467 8.37586 53.794 8.37586ZM54.2656 17.3485C52.4674 17.3485 51.0921 15.8446 51.0921 14.0893C51.0921 12.3324 52.4674 10.8301 54.2656 10.8301C55.789 10.8301 57.1651 12.3324 57.1651 14.0893C57.1651 15.8446 55.789 17.3485 54.2656 17.3485ZM79.2448 17.4973C77.6795 17.4973 77.2351 16.8204 77.2351 15.783V11.1912H79.6682V8.86367H77.2351V5.79492L74.5484 7.00086V16.3545C74.5484 18.746 76.1984 19.9524 78.4617 19.9524C78.8002 19.9524 79.2663 19.9305 79.5206 19.8679L80.1767 17.4557C79.8804 17.4762 79.542 17.4973 79.2448 17.4973Z" fill="#45535E"/>
<path id="Vector_2" d="M72.2462 11.3265C71.7375 10.4512 71.0218 9.74946 70.1271 9.22118C69.4586 8.83196 68.7653 8.58493 67.984 8.47884V5.69759C68.7653 5.36587 69.2501 4.63165 69.2501 3.77509C69.2501 2.60759 68.3139 1.66149 67.1473 1.66149C65.9798 1.66149 65.0271 2.60759 65.0271 3.77509C65.0271 4.63165 65.484 5.36587 66.2653 5.69759V8.48009C65.6403 8.5704 64.9921 8.76524 64.4003 9.06462C63.1914 8.14649 59.2273 5.13446 56.9084 3.37524C56.9634 3.17696 57.0057 2.97259 57.0057 2.75696C57.0057 1.46384 55.9586 0.41571 54.665 0.41571C53.3714 0.41571 52.3246 1.46384 52.3246 2.75696C52.3246 4.04993 53.3725 5.09837 54.6661 5.09837C55.1073 5.09837 55.5154 4.9693 55.8676 4.75712L56.357 5.12837L63.0814 9.97337C62.7259 10.2998 62.3948 10.671 62.13 11.0876C61.5932 11.9368 61.2653 12.8712 61.2653 13.8904V14.1031C61.2653 14.8185 61.4012 15.494 61.6328 16.1285C61.8367 16.6826 62.1348 17.1863 62.504 17.6418L60.2723 19.879C59.9489 19.7586 59.5976 19.7339 59.2605 19.8078C58.9234 19.8818 58.6147 20.0512 58.3714 20.2959C58.2029 20.4635 58.0693 20.663 57.9784 20.8827C57.8876 21.1023 57.8412 21.3378 57.842 21.5756C57.8421 22.0588 58.0304 22.5131 58.3723 22.8548C58.5399 23.0234 58.7392 23.1571 58.9588 23.2481C59.1785 23.3392 59.4139 23.3857 59.6517 23.3851C59.8895 23.3857 60.125 23.3391 60.3447 23.2481C60.5644 23.1571 60.7638 23.0234 60.9315 22.8548C61.0999 22.6871 61.2334 22.4877 61.3244 22.2682C61.4153 22.0486 61.4618 21.8132 61.4612 21.5756C61.4612 21.3885 61.4323 21.206 61.3779 21.0326L63.6846 18.7256C64.0009 18.944 64.3425 19.1279 64.7096 19.2865C65.4339 19.5996 66.2332 19.7904 67.1081 19.7904H67.2684C68.2356 19.7904 69.1479 19.5632 70.0056 19.0985C70.9093 18.6074 71.6167 17.9359 72.1511 17.0785C72.6882 16.2188 72.984 15.269 72.984 14.224V14.1718C72.984 13.1438 72.7461 12.1954 72.2462 11.3265ZM69.4278 16.166C68.8017 16.8618 68.082 17.2904 67.2684 17.2904H67.1343C66.6696 17.2904 66.2151 17.162 65.7701 16.9284C65.2686 16.6712 64.8873 16.3043 64.5753 15.8398C64.2528 15.3838 64.0778 14.886 64.0778 14.3582V14.1979C64.0778 13.679 64.1773 13.187 64.4282 12.7223C64.6965 12.2143 65.0589 11.8193 65.5407 11.5052C66.0139 11.1934 66.5192 11.0404 67.082 11.0404H67.1343C67.6446 11.0404 68.1278 11.141 68.5837 11.3743C69.0482 11.6231 69.4278 11.9629 69.722 12.4099C70.0078 12.8571 70.1778 13.3395 70.2325 13.8649C70.2411 13.9741 70.2454 14.086 70.2454 14.1929C70.2454 14.906 69.9729 15.5665 69.4278 16.166Z" fill="#F8761F"/>
</g>
<defs>
<clipPath id="clip0_93_23">
<rect width="80" height="23.296" fill="white" transform="translate(0.171509 0.40802)"/>
</clipPath>
</defs>
</svg>
