<svg width="162" height="48" viewBox="0 0 162 48" fill="none" xmlns="http://www.w3.org/2000/svg">
<path d="M155.999 0H5.99997C2.68628 0 0 2.68628 0 5.99997V41.9998C0 45.3135 2.68628 47.9998 5.99997 47.9998H155.999C159.313 47.9998 161.999 45.3135 161.999 41.9998V5.99997C161.999 2.68628 159.313 0 155.999 0Z" fill="black"/>
<path d="M155.999 0.959999C157.335 0.961543 158.617 1.49307 159.561 2.43797C160.506 3.38287 161.038 4.66397 161.039 6.00021V42C161.038 43.3363 160.506 44.6174 159.561 45.5623C158.617 46.5071 157.335 47.0387 155.999 47.0403H5.99997C4.66372 47.0387 3.38264 46.5072 2.43779 45.5623C1.49293 44.6174 0.961472 43.3363 0.959995 42V6.00021C0.96145 4.66395 1.4929 3.38284 2.43776 2.43794C3.38262 1.49303 4.66371 0.961518 5.99997 0.959999H155.999ZM155.999 0.000244141H5.99997C4.41011 0.00489784 2.8867 0.63853 1.76249 1.76274C0.638286 2.88694 0.00465369 4.41035 0 6.00021L0 42C0.00465369 43.5899 0.638286 45.1133 1.76249 46.2375C2.8867 47.3617 4.41011 47.9953 5.99997 48H155.999C157.589 47.9953 159.112 47.3617 160.237 46.2375C161.361 45.1133 161.995 43.5899 161.999 42V6.00021C161.995 4.41035 161.361 2.88694 160.237 1.76274C159.112 0.63853 157.589 0.00489784 155.999 0.000244141Z" fill="#A6A6A6"/>
<path d="M56.9018 12.2919C56.9236 12.7322 56.8556 13.1724 56.7018 13.5856C56.5481 13.9988 56.3119 14.3764 56.0076 14.6954C55.6665 15.0491 55.2546 15.3268 54.7988 15.5104C54.343 15.6939 53.8537 15.7792 53.3626 15.7606C52.8685 15.765 52.3785 15.6706 51.9213 15.4829C51.4642 15.2953 51.0492 15.0181 50.7007 14.6678C50.3522 14.3174 50.0773 13.9009 49.8921 13.4428C49.7069 12.9847 49.6151 12.4942 49.6221 12.0001C49.6151 11.5059 49.7069 11.0154 49.8922 10.5573C50.0774 10.0991 50.3523 9.68263 50.7008 9.33224C51.0493 8.98185 51.4643 8.70464 51.9214 8.51688C52.3785 8.32913 52.8685 8.23462 53.3626 8.23891C53.8707 8.23737 54.3737 8.34009 54.8404 8.54071C55.2739 8.71644 55.6598 8.99208 55.9666 9.34518L55.3338 9.97854C55.0926 9.69468 54.7894 9.47003 54.4477 9.32191C54.1059 9.17379 53.7347 9.10617 53.3626 9.12427C52.9882 9.12233 52.6171 9.19599 52.2718 9.34084C51.9264 9.4857 51.6138 9.69876 51.3528 9.96727C51.0917 10.2358 50.8875 10.5542 50.7525 10.9035C50.6174 11.2528 50.5542 11.6258 50.5667 12.0001C50.5577 12.5607 50.7155 13.1113 51.0199 13.5822C51.3244 14.0531 51.7618 14.4229 52.2767 14.6448C52.7916 14.8668 53.3608 14.9308 53.9122 14.8288C54.4635 14.7268 54.9722 14.4634 55.3736 14.072C55.7431 13.6738 55.9572 13.1563 55.9771 12.6135H53.3626V11.7487H56.8514C56.8844 11.9279 56.9012 12.1097 56.9018 12.2919Z" fill="white" stroke="white" stroke-width="0.2" stroke-miterlimit="10"/>
<path d="M62.433 9.2849H59.1541V11.5677H62.1108V12.4326H59.1541V14.7154H62.433V15.6001H58.2295V8.40015H62.433V9.2849Z" fill="white" stroke="white" stroke-width="0.2" stroke-miterlimit="10"/>
<path d="M66.3341 15.6001H65.4083V9.2849H63.3973V8.40015H68.345V9.2849H66.3341V15.6001Z" fill="white" stroke="white" stroke-width="0.2" stroke-miterlimit="10"/>
<path d="M71.9251 15.6001V8.40015H72.8497V15.6001H71.9251Z" fill="white" stroke="white" stroke-width="0.2" stroke-miterlimit="10"/>
<path d="M76.9536 15.6001H76.0278V9.2849H74.017V8.40015H78.9645V9.2849H76.9536V15.6001Z" fill="white" stroke="white" stroke-width="0.2" stroke-miterlimit="10"/>
<path d="M88.3307 14.6697C87.6299 15.3684 86.6807 15.7607 85.6911 15.7607C84.7015 15.7607 83.7523 15.3684 83.0515 14.6697C82.7048 14.3185 82.4323 13.9012 82.2501 13.4426C82.0679 12.984 81.9797 12.4935 81.9909 12.0002C81.9797 11.5068 82.0679 11.0163 82.2501 10.5577C82.4323 10.0991 82.7048 9.6818 83.0515 9.33065C83.3979 8.98417 83.8092 8.70941 84.2619 8.52209C84.7146 8.33477 85.1998 8.23858 85.6897 8.23902C86.1797 8.23945 86.6647 8.33651 87.1171 8.52463C87.5695 8.71275 87.9803 8.98824 88.3261 9.33533C88.673 9.68555 88.9461 10.1019 89.1291 10.5597C89.312 11.0174 89.4012 11.5073 89.3913 12.0002C89.4022 12.4935 89.3139 12.9839 89.1317 13.4425C88.9496 13.901 88.6772 14.3183 88.3307 14.6697ZM83.7346 14.0668C84.2537 14.5849 84.9571 14.876 85.6905 14.876C86.4239 14.876 87.1273 14.5849 87.6464 14.0668C87.9125 13.7943 88.1207 13.4707 88.2583 13.1155C88.3958 12.7603 88.46 12.3808 88.4468 12.0002C88.46 11.6195 88.3958 11.2401 88.2583 10.8849C88.1207 10.5296 87.9125 10.206 87.6464 9.93352C87.1273 9.41538 86.4239 9.12436 85.6905 9.12436C84.9571 9.12436 84.2537 9.41538 83.7346 9.93352C83.4689 10.2062 83.261 10.5299 83.1237 10.8851C82.9863 11.2403 82.9223 11.6196 82.9354 12.0002C82.9223 12.3807 82.9863 12.76 83.1237 13.1152C83.261 13.4704 83.4689 13.7941 83.7346 14.0668Z" fill="white" stroke="white" stroke-width="0.2" stroke-miterlimit="10"/>
<path d="M90.6897 15.6001V8.40015H91.8159L95.3151 14.0011H95.3549L95.3151 12.6136V8.40015H96.2409V15.6001H95.2752L91.6143 9.72782H91.5744L91.6143 11.1154V15.6001H90.6897Z" fill="white" stroke="white" stroke-width="0.2" stroke-miterlimit="10"/>
<path d="M81.7625 26.1019C80.7539 26.1057 79.7691 26.4083 78.9323 26.9714C78.0955 27.5345 77.4444 28.333 77.061 29.2659C76.6777 30.1988 76.5794 31.2244 76.7785 32.2132C76.9776 33.202 77.4653 34.1096 78.1798 34.8214C78.8944 35.5332 79.8038 36.0174 80.7933 36.2128C81.7828 36.4081 82.808 36.3059 83.7395 35.919C84.671 35.5322 85.4669 34.878 86.0269 34.0391C86.5868 33.2002 86.8857 32.2142 86.8857 31.2056C86.8956 30.531 86.7697 29.8612 86.5155 29.2363C86.2613 28.6113 85.884 28.0439 85.406 27.5677C84.928 27.0915 84.3591 26.7164 83.7332 26.4646C83.1073 26.2127 82.4371 26.0894 81.7625 26.1019ZM81.7625 34.2988C81.1414 34.3431 80.5213 34.1993 79.983 33.8863C79.4447 33.5732 79.0131 33.1053 78.7444 32.5435C78.4758 31.9818 78.3825 31.3521 78.4767 30.7365C78.5709 30.121 78.8482 29.548 79.2726 29.0923C79.697 28.6366 80.2487 28.3192 80.856 28.1814C81.4633 28.0437 82.098 28.092 82.6775 28.32C83.2569 28.548 83.7543 28.9452 84.1049 29.4599C84.4555 29.9746 84.643 30.5828 84.643 31.2056C84.6618 31.599 84.6018 31.9922 84.4664 32.362C84.331 32.7319 84.1229 33.0709 83.8545 33.3591C83.5861 33.6474 83.2628 33.879 82.9035 34.0404C82.5442 34.2017 82.1563 34.2896 81.7625 34.2988ZM70.5865 26.1019C69.5779 26.1057 68.593 26.4082 67.7562 26.9714C66.9195 27.5345 66.2683 28.3329 65.8849 29.2658C65.5016 30.1988 65.4033 31.2244 65.6024 32.2131C65.8015 33.2019 66.2891 34.1095 67.0036 34.8214C67.7182 35.5332 68.6276 36.0174 69.6171 36.2128C70.6066 36.4081 71.6319 36.3059 72.5633 35.9191C73.4948 35.5322 74.2908 34.878 74.8507 34.0391C75.4107 33.2002 75.7095 32.2142 75.7095 31.2056C75.7194 30.531 75.5935 29.8613 75.3394 29.2363C75.0852 28.6113 74.7079 28.0439 74.2299 27.5677C73.7519 27.0916 73.1831 26.7164 72.5571 26.4646C71.9312 26.2128 71.2611 26.0894 70.5865 26.1019ZM70.5865 34.2988C69.9654 34.3431 69.3453 34.1993 68.807 33.8863C68.2687 33.5732 67.8371 33.1053 67.5684 32.5435C67.2997 31.9818 67.2064 31.3521 67.3006 30.7365C67.3948 30.121 67.6722 29.548 68.0965 29.0923C68.5209 28.6366 69.0727 28.3192 69.68 28.1814C70.2873 28.0437 70.922 28.092 71.5014 28.32C72.0809 28.548 72.5783 28.9452 72.9289 29.4599C73.2795 29.9746 73.467 30.5828 73.467 31.2056C73.4858 31.599 73.4258 31.9922 73.2904 32.362C73.155 32.7319 72.947 33.0709 72.6785 33.3591C72.4101 33.6474 72.0868 33.879 71.7275 34.0404C71.3682 34.2018 70.9803 34.2896 70.5865 34.2988ZM57.292 27.6679V29.833H62.4732C62.3985 30.8486 61.9829 31.8091 61.2939 32.5589C60.7747 33.0882 60.1503 33.5027 59.461 33.7757C58.7717 34.0487 58.0328 34.1742 57.292 34.1441C55.7776 34.1236 54.3322 33.5076 53.2685 32.4294C52.2048 31.3513 51.6084 29.8976 51.6084 28.3831C51.6084 26.8685 52.2048 25.4149 53.2685 24.3367C54.3322 23.2585 55.7776 22.6425 57.292 22.622C58.7467 22.603 60.15 23.1588 61.1973 24.1686L62.7245 22.6413C62.01 21.9339 61.1614 21.3763 60.2286 21.0012C59.2957 20.6261 58.2973 20.441 57.292 20.4567C56.2414 20.4414 55.1982 20.6352 54.2232 21.0266C53.2481 21.4181 52.3606 21.9995 51.6122 22.7371C50.8638 23.4746 50.2696 24.3536 49.864 25.3228C49.4583 26.2921 49.2495 27.3323 49.2495 28.3831C49.2495 29.4338 49.4583 30.474 49.864 31.4433C50.2696 32.4126 50.8638 33.2915 51.6122 34.0291C52.3606 34.7666 53.2481 35.348 54.2232 35.7395C55.1982 36.131 56.2414 36.3247 57.292 36.3094C58.3186 36.352 59.3424 36.1757 60.2957 35.7924C61.2489 35.4091 62.1098 34.8275 62.8211 34.0862C64.084 32.7077 64.7571 30.8896 64.6965 29.0211C64.7014 28.5673 64.6625 28.1141 64.5803 27.6679H57.292ZM111.662 29.3497C111.355 28.4252 110.771 27.6176 109.989 27.0366C109.208 26.4555 108.266 26.1292 107.293 26.1019C106.637 26.1059 105.989 26.2429 105.387 26.5046C104.786 26.7662 104.244 27.1471 103.794 27.6241C103.344 28.1012 102.996 28.6645 102.77 29.2801C102.543 29.8957 102.445 30.5507 102.479 31.2056C102.464 31.8766 102.585 32.5437 102.834 33.167C103.082 33.7904 103.454 34.3572 103.927 34.8336C104.4 35.31 104.964 35.6862 105.585 35.9398C106.207 36.1933 106.873 36.319 107.544 36.3094C108.385 36.314 109.213 36.1098 109.956 35.715C110.698 35.3202 111.331 34.7472 111.797 34.0475L110.057 32.8876C109.796 33.3205 109.428 33.6782 108.987 33.9256C108.547 34.173 108.049 34.3016 107.544 34.2988C107.024 34.3187 106.51 34.1819 106.069 33.9061C105.627 33.6303 105.279 33.2283 105.069 32.7522L111.894 29.9297L111.662 29.3497ZM104.702 31.051C104.678 30.6795 104.728 30.307 104.85 29.9552C104.972 29.6034 105.162 29.2794 105.411 29.0022C105.659 28.725 105.96 28.5001 106.297 28.3407C106.633 28.1813 106.998 28.0905 107.37 28.0738C107.757 28.0483 108.143 28.1374 108.48 28.3299C108.817 28.5225 109.09 28.8099 109.264 29.1565L104.702 31.051ZM99.1536 36H101.396V20.9982H99.1536V36ZM95.4804 27.2425H95.4031C95.0622 26.872 94.6461 26.5787 94.1826 26.382C93.7192 26.1853 93.2191 26.0898 92.7158 26.1019C91.3998 26.1579 90.1563 26.7201 89.2449 27.6711C88.3335 28.6221 87.8247 29.8884 87.8247 31.2056C87.8247 32.5228 88.3335 33.7892 89.2449 34.7402C90.1563 35.6912 91.3998 36.2534 92.7158 36.3094C93.2211 36.3228 93.7233 36.226 94.1874 36.0257C94.6514 35.8254 95.0663 35.5264 95.4031 35.1495H95.4804V35.8841C95.4804 37.8367 94.4365 38.8806 92.7545 38.8806C92.1939 38.8672 91.65 38.6872 91.1921 38.3636C90.7343 38.0399 90.3831 37.5873 90.1834 37.0633L88.2307 37.8754C88.5988 38.7714 89.2259 39.5371 90.0319 40.0744C90.8378 40.6117 91.7858 40.8961 92.7545 40.8912C95.3838 40.8912 97.607 39.3446 97.607 35.5747V26.4111H95.4804V27.2425ZM92.9093 34.2988C92.1341 34.2331 91.412 33.8787 90.8857 33.3059C90.3593 32.7331 90.0673 31.9835 90.0673 31.2056C90.0673 30.4277 90.3593 29.6782 90.8857 29.1054C91.412 28.5325 92.1341 28.1782 92.9093 28.1125C93.2949 28.1313 93.6728 28.2276 94.0204 28.3956C94.368 28.5635 94.6783 28.7998 94.9326 29.0902C95.187 29.3807 95.3803 29.7194 95.501 30.0861C95.6216 30.4529 95.6672 30.8401 95.6351 31.2249C95.6652 31.6072 95.6179 31.9918 95.4961 32.3554C95.3742 32.7191 95.1802 33.0544 94.9257 33.3414C94.6713 33.6284 94.3615 33.8611 94.0151 34.0256C93.6686 34.1901 93.2925 34.283 92.9093 34.2988ZM122.166 20.9984H116.801V36H119.04V30.3164H122.166C122.8 30.3511 123.433 30.2563 124.029 30.0379C124.624 29.8194 125.169 29.4819 125.63 29.0458C126.09 28.6098 126.457 28.0844 126.708 27.5018C126.958 26.9192 127.088 26.2916 127.088 25.6574C127.088 25.0231 126.958 24.3955 126.708 23.813C126.457 23.2304 126.09 22.705 125.63 22.269C125.169 21.8329 124.624 21.4954 124.029 21.2769C123.433 21.0585 122.8 20.9637 122.166 20.9984ZM122.224 28.2286H119.04V23.0863H122.224C122.566 23.0792 122.906 23.1405 123.225 23.2665C123.543 23.3925 123.833 23.5808 124.077 23.8202C124.321 24.0597 124.516 24.3455 124.648 24.661C124.781 24.9765 124.849 25.3152 124.849 25.6575C124.849 25.9997 124.781 26.3384 124.648 26.6539C124.516 26.9694 124.321 27.2552 124.077 27.4947C123.833 27.7341 123.543 27.9224 123.225 28.0484C122.906 28.1744 122.566 28.2357 122.224 28.2286ZM136.062 26.0743C135.245 26.0266 134.432 26.2185 133.722 26.6265C133.012 27.0344 132.437 27.6407 132.067 28.3709L134.055 29.2009C134.252 28.8384 134.55 28.5413 134.914 28.3459C135.277 28.1505 135.69 28.0653 136.101 28.1007C136.669 28.0452 137.235 28.2173 137.677 28.579C138.118 28.9408 138.398 29.4628 138.455 30.0307V30.1851C137.736 29.8031 136.934 29.6042 136.12 29.6061C133.978 29.6061 131.797 30.7834 131.797 32.9836C131.818 33.4473 131.931 33.9021 132.131 34.321C132.331 34.7398 132.613 35.1143 132.961 35.4221C133.308 35.7299 133.714 35.9648 134.154 36.1128C134.594 36.2609 135.059 36.319 135.522 36.2838C136.085 36.317 136.648 36.1984 137.15 35.9405C137.653 35.6825 138.077 35.2946 138.378 34.8171H138.455V35.9751H140.617V30.2237C140.617 27.5603 138.629 26.0743 136.062 26.0743ZM135.792 34.2959C135.058 34.2959 134.036 33.9293 134.036 33.0221C134.036 31.8642 135.309 31.4202 136.41 31.4202C137.124 31.4012 137.831 31.5745 138.455 31.9221C138.373 32.5728 138.058 33.1717 137.568 33.6081C137.079 34.0444 136.448 34.2888 135.792 34.2959ZM148.491 26.4024L145.924 32.9063H145.847L143.184 26.4024H140.771L144.766 35.4925L142.489 40.5491H144.824L150.981 26.4024H148.491ZM128.323 36H130.562V20.9984H128.323V36Z" fill="white"/>
<path d="M12.5223 9.04562C12.1288 9.5161 11.9301 10.1192 11.9669 10.7315V37.2707C11.93 37.8829 12.1287 38.4861 12.5223 38.9565L12.6111 39.0431L27.4778 24.1765V23.8257L12.6111 8.9585L12.5223 9.04562Z" fill="url(#paint0_linear_263_326)"/>
<path d="M32.4331 29.1343L27.4778 24.1766V23.8258L32.4343 18.8694L32.546 18.9331L38.4173 22.2692C40.0945 23.222 40.0945 24.781 38.4173 25.7344L32.546 29.0705L32.4331 29.1343Z" fill="url(#paint1_linear_263_326)"/>
<path d="M32.546 29.0699L27.4778 24.0012L12.5223 38.9566C12.864 39.258 13.3004 39.4304 13.7558 39.4438C14.2113 39.4573 14.6571 39.311 15.016 39.0303L32.546 29.0699Z" fill="url(#paint2_linear_263_326)"/>
<path d="M32.546 18.9324L15.016 8.97199C14.6571 8.6913 14.2113 8.54501 13.7558 8.55847C13.3004 8.57193 12.864 8.74428 12.5223 9.04567L27.4778 24.0012L32.546 18.9324Z" fill="url(#paint3_linear_263_326)"/>
<path opacity="0.2" d="M32.4343 28.9583L15.016 38.855C14.6709 39.1177 14.2497 39.261 13.816 39.2633C13.3823 39.2656 12.9596 39.1268 12.6117 38.8678L12.5223 38.9572L12.6111 39.0437L12.6117 39.0431C12.9595 39.3023 13.3822 39.4412 13.816 39.4389C14.2497 39.4366 14.6709 39.2931 15.016 39.0303L32.546 29.0699L32.4343 28.9583Z" fill="black"/>
<path opacity="0.12" d="M12.5223 38.7818C12.1288 38.3113 11.9301 37.7082 11.9669 37.0959V37.2713C11.9301 37.8835 12.1288 38.4866 12.5223 38.9571L12.6117 38.8677L12.5223 38.7818Z" fill="black"/>
<path opacity="0.12" d="M38.4173 25.5585L32.4343 28.9583L32.546 29.0699L38.4173 25.7338C38.7627 25.5839 39.0616 25.3442 39.2828 25.0395C39.504 24.7349 39.6396 24.3765 39.6753 24.0017C39.601 24.3411 39.4487 24.6586 39.2303 24.9288C39.0119 25.199 38.7336 25.4146 38.4173 25.5585Z" fill="black"/>
<path opacity="0.25" d="M15.016 9.14786L38.4173 22.4438C38.7337 22.5876 39.0122 22.8033 39.2305 23.0736C39.4489 23.344 39.6012 23.6616 39.6753 24.0011C39.6398 23.6262 39.5044 23.2676 39.2831 22.9629C39.0619 22.6581 38.7629 22.4183 38.4173 22.2685L15.016 8.97254C13.3389 8.01963 11.9669 8.81114 11.9669 10.7321V10.9074C11.9669 8.98658 13.3389 8.19507 15.016 9.14786Z" fill="white"/>
<defs>
<linearGradient id="paint0_linear_263_326" x1="26.1594" y1="10.4517" x2="6.02065" y2="30.5905" gradientUnits="userSpaceOnUse">
<stop stop-color="#00A0FF"/>
<stop offset="0.00657" stop-color="#00A1FF"/>
<stop offset="0.2601" stop-color="#00BEFF"/>
<stop offset="0.5122" stop-color="#00D2FF"/>
<stop offset="0.7604" stop-color="#00DFFF"/>
<stop offset="1" stop-color="#00E3FF"/>
</linearGradient>
<linearGradient id="paint1_linear_263_326" x1="40.601" y1="24.0018" x2="11.5648" y2="24.0018" gradientUnits="userSpaceOnUse">
<stop stop-color="#FFE000"/>
<stop offset="0.4087" stop-color="#FFBD00"/>
<stop offset="0.7754" stop-color="#FFA500"/>
<stop offset="1" stop-color="#FF9C00"/>
</linearGradient>
<linearGradient id="paint2_linear_263_326" x1="29.7921" y1="26.7553" x2="2.48225" y2="54.0651" gradientUnits="userSpaceOnUse">
<stop stop-color="#FF3A44"/>
<stop offset="1" stop-color="#C31162"/>
</linearGradient>
<linearGradient id="paint3_linear_263_326" x1="8.75661" y1="0.211525" x2="20.9516" y2="12.4065" gradientUnits="userSpaceOnUse">
<stop stop-color="#32A071"/>
<stop offset="0.0685" stop-color="#2DA771"/>
<stop offset="0.4762" stop-color="#15CF74"/>
<stop offset="0.8009" stop-color="#06E775"/>
<stop offset="1" stop-color="#00F076"/>
</linearGradient>
</defs>
</svg>
