<svg xmlns="http://www.w3.org/2000/svg" width="180" height="54" viewBox="0 0 180 54" fill="none">
  <path d="M165.666 0.324148H14.3422C13.7906 0.324148 13.2456 0.324148 12.6955 0.326815C12.235 0.329481 11.7781 0.337228 11.3132 0.343748C10.3031 0.354284 9.29543 0.43305 8.29888 0.579361C7.30373 0.728858 6.33976 1.0107 5.43956 1.41536C4.54046 1.82344 3.71893 2.3537 3.00477 2.98691C2.28686 3.61833 1.68842 4.34817 1.23248 5.14836C0.775271 5.94696 0.458244 6.80273 0.292343 7.68612C0.124866 8.56839 0.0347448 9.46084 0.0227888 10.3555C0.00882972 10.7643 0.00735559 11.1744 0 11.5833V42.4023C0.00735559 42.8163 0.00882972 43.2173 0.0227888 43.6315C0.0347485 44.5261 0.12487 45.4185 0.292343 46.3007C0.457785 47.1846 0.774831 48.0409 1.23248 48.8397C1.68821 49.6374 2.28673 50.3642 3.00477 50.9921C3.71622 51.6282 4.53828 52.1588 5.43956 52.5637C6.33975 52.9695 7.30362 53.253 8.29888 53.4048C9.2956 53.55 10.3032 53.6288 11.3132 53.6405C11.7781 53.6496 12.235 53.6548 12.6955 53.6548C13.2456 53.6575 13.7906 53.6575 14.3422 53.6575H165.666C166.207 53.6575 166.756 53.6575 167.296 53.6548C167.755 53.6548 168.225 53.6496 168.683 53.6405C169.691 53.6294 170.697 53.5506 171.692 53.4048C172.69 53.2519 173.657 52.9685 174.562 52.5637C175.462 52.1586 176.284 51.6279 176.995 50.9921C177.711 50.3618 178.311 49.6354 178.772 48.8397C179.226 48.0403 179.54 47.1841 179.703 46.3007C179.871 45.4183 179.964 44.5261 179.982 43.6315C179.988 43.2173 179.988 42.8163 179.988 42.4023C180 41.9179 180 41.4361 180 40.9439V13.039C180 12.5507 180 12.0663 179.988 11.5833C179.988 11.1744 179.988 10.7643 179.982 10.3554C179.964 9.46071 179.871 8.56846 179.703 7.68607C179.54 6.80319 179.226 5.94749 178.772 5.14831C177.843 3.54441 176.371 2.23885 174.562 1.41524C173.657 1.01157 172.69 0.729802 171.692 0.579241C170.697 0.432285 169.691 0.353492 168.683 0.343561C168.225 0.337055 167.755 0.329241 167.296 0.326641C166.756 0.323975 166.207 0.323975 165.666 0.323975V0.324148Z" fill="white"/>
  <path d="M12.5733 52.4948C12.1142 52.4948 11.6662 52.4896 11.2107 52.4805C10.2671 52.4696 9.32572 52.3969 8.39426 52.263C7.52572 52.1306 6.68434 51.8844 5.89787 51.5323C5.11861 51.1832 4.40786 50.7255 3.79286 50.1766C3.16895 49.6342 2.64951 49.0051 2.25514 48.3142C1.85642 47.6188 1.58049 46.8735 1.43694 46.1041C1.28193 45.2774 1.19806 44.4415 1.18606 43.6036C1.17651 43.3223 1.164 42.3859 1.164 42.3859V11.5787C1.164 11.5787 1.17732 10.6566 1.18614 10.3857C1.19763 9.54913 1.28101 8.71451 1.43556 7.88911C1.57937 7.11764 1.85552 6.37015 2.25445 5.67251C2.64737 4.98212 3.16392 4.35254 3.78407 3.80819C4.40352 3.25866 5.11654 2.79854 5.89713 2.44461C6.68179 2.09372 7.52158 1.84918 8.38837 1.71921C9.32289 1.58393 10.2675 1.5108 11.2144 1.50041L12.574 1.48413H167.427L168.802 1.50107C169.741 1.51094 170.677 1.58342 171.603 1.7179C172.478 1.84951 173.327 2.09575 174.12 2.44852C175.684 3.1618 176.957 4.29027 177.759 5.67577C178.152 6.36859 178.424 7.10998 178.566 7.87479C178.722 8.70696 178.81 9.54814 178.828 10.3916C178.832 10.7693 178.832 11.175 178.832 11.5787C178.844 12.0788 178.844 12.5548 178.844 13.0347V40.9454C178.844 41.43 178.844 41.9027 178.832 42.3794C178.832 42.813 178.832 43.2103 178.826 43.6192C178.809 44.4476 178.723 45.2738 178.569 46.0911C178.428 46.866 178.154 47.6171 177.755 48.3182C177.358 49.0016 176.841 49.6252 176.225 50.1662C175.609 50.718 174.897 51.1785 174.116 51.5298C173.325 51.8845 172.477 52.1317 171.603 52.263C170.671 52.3977 169.73 52.4704 168.786 52.4805C168.345 52.4896 167.883 52.4948 167.434 52.4948L165.801 52.4975L12.5733 52.4948Z" fill="white"/>
  <path d="M43.7297 27.3917C43.744 26.2788 44.0396 25.1877 44.589 24.2197C45.1384 23.2518 45.9236 22.4385 46.8718 21.8557C46.2695 20.9954 45.4749 20.2875 44.5511 19.7881C43.6273 19.2887 42.5998 19.0116 41.5502 18.9787C39.3112 18.7437 37.1406 20.3185 35.9997 20.3185C34.8367 20.3185 33.08 19.0021 31.1884 19.041C29.9648 19.0805 28.7723 19.4363 27.7272 20.0737C26.682 20.7112 25.8198 21.6084 25.2245 22.6782C22.6458 27.1427 24.5692 33.7041 27.0394 37.3129C28.2753 39.0801 29.7196 41.054 31.6096 40.984C33.459 40.9073 34.1497 39.8047 36.3821 39.8047C38.5938 39.8047 39.2418 40.984 41.1701 40.9395C43.1546 40.9073 44.4049 39.1645 45.5975 37.3806C46.4854 36.1215 47.1687 34.7299 47.622 33.2573C46.4691 32.7697 45.4852 31.9534 44.793 30.9104C44.1008 29.8673 43.731 28.6436 43.7297 27.3917Z" fill="black"/>
  <path d="M40.0875 16.6053C41.1696 15.3064 41.7026 13.6368 41.5736 11.9512C39.9204 12.1248 38.3934 12.9149 37.2968 14.164C36.7606 14.7742 36.3499 15.4841 36.0883 16.2531C35.8266 17.0222 35.7191 17.8352 35.7718 18.6458C36.5987 18.6544 37.4167 18.4751 38.1642 18.1217C38.9118 17.7682 39.5694 17.2498 40.0875 16.6053Z" fill="black"/>
  <path d="M67.1076 36.5103H60.7964L59.2808 40.9856H56.6076L62.5855 24.4282H65.3628L71.3407 40.9856H68.6219L67.1076 36.5103ZM61.45 34.4452H66.4527L63.9866 27.1822H63.9176L61.45 34.4452Z" fill="black"/>
  <path d="M84.2508 34.9504C84.2508 38.7017 82.243 41.1119 79.2131 41.1119C78.4455 41.152 77.6822 40.9752 77.0105 40.6017C76.3388 40.2282 75.7858 39.673 75.4149 38.9999H75.3576V44.979H72.8797V28.9139H75.2782V30.9217H75.3238C75.7117 30.2518 76.274 29.6995 76.9508 29.3237C77.6277 28.9479 78.3937 28.7627 79.1675 28.7876C82.2313 28.7876 84.2508 31.2095 84.2508 34.9504ZM81.704 34.9504C81.704 32.5064 80.4409 30.8996 78.5138 30.8996C76.6206 30.8996 75.3472 32.5402 75.3472 34.9504C75.3472 37.3827 76.6206 39.0116 78.5138 39.0116C80.4409 39.0116 81.704 37.4165 81.704 34.9504Z" fill="black"/>
  <path d="M97.5373 34.9504C97.5373 38.7017 95.5295 41.1118 92.4996 41.1118C91.732 41.152 90.9687 40.9752 90.297 40.6017C89.6253 40.2282 89.0723 39.673 88.7014 38.9998H88.6441V44.979H86.1662V28.9139H88.5646V30.9217H88.6102C88.9981 30.2518 89.5604 29.6995 90.2373 29.3237C90.9141 28.9479 91.6802 28.7627 92.454 28.7876C95.5178 28.7876 97.5373 31.2095 97.5373 34.9504ZM94.9905 34.9504C94.9905 32.5064 93.7274 30.8996 91.8003 30.8996C89.9071 30.8996 88.6337 32.5402 88.6337 34.9504C88.6337 37.3827 89.9071 39.0116 91.8003 39.0116C93.7274 39.0116 94.9905 37.4165 94.9905 34.9504H94.9905Z" fill="black"/>
  <path d="M106.318 36.3722C106.502 38.0142 108.097 39.0922 110.277 39.0922C112.365 39.0922 113.868 38.0141 113.868 36.5336C113.868 35.2485 112.962 34.479 110.816 33.9516L108.67 33.4347C105.63 32.7003 104.218 31.2784 104.218 28.9711C104.218 26.1143 106.708 24.1521 110.243 24.1521C113.742 24.1521 116.14 26.1143 116.221 28.9711H113.719C113.57 27.3188 112.204 26.3214 110.208 26.3214C108.212 26.3214 106.846 27.3305 106.846 28.7992C106.846 29.9698 107.718 30.6586 109.852 31.1859L111.677 31.6338C115.074 32.4372 116.485 33.8018 116.485 36.2237C116.485 39.3213 114.018 41.2614 110.093 41.2614C106.421 41.2614 103.942 39.3669 103.782 36.3721L106.318 36.3722Z" fill="black"/>
  <path d="M121.833 26.0571V28.9139H124.128V30.8761H121.833V37.5311C121.833 38.5649 122.293 39.0467 123.302 39.0467C123.574 39.042 123.846 39.0228 124.117 38.9894V40.9399C123.663 41.0247 123.202 41.0631 122.74 41.0545C120.296 41.0545 119.343 40.1365 119.343 37.7954V30.8761H117.588V28.9139H119.343V26.0571H121.833Z" fill="black"/>
  <path d="M125.458 34.9505C125.458 31.1523 127.695 28.7656 131.183 28.7656C134.683 28.7656 136.91 31.1523 136.91 34.9505C136.91 38.7591 134.695 41.1354 131.183 41.1354C127.673 41.1354 125.458 38.7591 125.458 34.9505ZM134.385 34.9505C134.385 32.3451 133.191 30.8073 131.183 30.8073C129.175 30.8073 127.983 32.3568 127.983 34.9505C127.983 37.5664 129.175 39.0924 131.183 39.0924C133.191 39.0924 134.385 37.5664 134.385 34.9505H134.385Z" fill="black"/>
  <path d="M138.953 28.9138H141.316V30.9685H141.373C141.533 30.3268 141.909 29.7597 142.438 29.3625C142.967 28.9653 143.616 28.7623 144.277 28.7875C144.562 28.7865 144.847 28.8175 145.126 28.88V31.1977C144.765 31.0875 144.389 31.0369 144.013 31.0479C143.653 31.0333 143.294 31.0968 142.961 31.234C142.627 31.3712 142.328 31.5788 142.083 31.8427C141.837 32.1065 141.652 32.4203 141.539 32.7625C141.427 33.1048 141.39 33.4673 141.431 33.8253V40.9854H138.953L138.953 28.9138Z" fill="black"/>
  <path d="M156.55 37.4401C156.217 39.6315 154.083 41.1354 151.352 41.1354C147.841 41.1354 145.661 38.7825 145.661 35.0078C145.661 31.2214 147.852 28.7656 151.248 28.7656C154.588 28.7656 156.688 31.0599 156.688 34.72V35.569H148.162V35.7187C148.123 36.163 148.179 36.6106 148.325 37.0317C148.472 37.4528 148.707 37.8379 149.014 38.1613C149.321 38.4846 149.694 38.739 150.107 38.9074C150.52 39.0758 150.964 39.1544 151.41 39.138C151.995 39.1929 152.583 39.0573 153.085 38.7513C153.587 38.4454 153.977 37.9855 154.197 37.4401L156.55 37.4401ZM148.174 33.8372H154.209C154.231 33.4378 154.171 33.038 154.031 32.6631C153.892 32.2881 153.676 31.9461 153.398 31.6584C153.12 31.3707 152.786 31.1436 152.416 30.9913C152.046 30.839 151.648 30.7648 151.248 30.7734C150.845 30.771 150.445 30.8486 150.071 31.0015C149.698 31.1545 149.359 31.38 149.073 31.6648C148.787 31.9496 148.56 32.2883 148.406 32.6611C148.252 33.034 148.173 33.4337 148.174 33.8372V33.8372Z" fill="black"/>
  <path d="M61.1395 11.9656C61.659 11.9283 62.1803 12.0068 62.6658 12.1953C63.1512 12.3839 63.5888 12.6779 63.9469 13.0561C64.305 13.4342 64.5748 13.8872 64.7366 14.3822C64.8985 14.8772 64.9485 15.402 64.883 15.9187C64.883 18.4604 63.5093 19.9214 61.1395 19.9214H58.2658V11.9656H61.1395ZM59.5015 18.7962H61.0015C61.3727 18.8184 61.7442 18.7576 62.0889 18.6181C62.4336 18.4786 62.7429 18.264 62.9942 17.9899C63.2455 17.7158 63.4326 17.3891 63.5417 17.0336C63.6509 16.6782 63.6794 16.3028 63.6252 15.9349C63.6754 15.5685 63.644 15.1954 63.5332 14.8425C63.4224 14.4897 63.2349 14.1657 62.9841 13.8937C62.7334 13.6218 62.4256 13.4088 62.0828 13.2698C61.7401 13.1308 61.3708 13.0694 61.0015 13.0899H59.5015V18.7962Z" fill="black"/>
  <path d="M66.2788 16.9164C66.241 16.5219 66.2862 16.1238 66.4113 15.7477C66.5364 15.3716 66.7387 15.0258 67.0053 14.7325C67.2719 14.4392 67.5969 14.2048 67.9593 14.0445C68.3218 13.8841 68.7138 13.8013 69.1102 13.8013C69.5065 13.8013 69.8985 13.8841 70.261 14.0445C70.6234 14.2048 70.9484 14.4392 71.215 14.7325C71.4816 15.0258 71.6839 15.3716 71.809 15.7477C71.9341 16.1238 71.9793 16.5219 71.9415 16.9164C71.98 17.3114 71.9354 17.71 71.8106 18.0867C71.6858 18.4634 71.4836 18.8099 71.2169 19.1038C70.9503 19.3976 70.6251 19.6325 70.2623 19.7932C69.8994 19.9539 69.507 20.0369 69.1102 20.0369C68.7133 20.0369 68.3209 19.9539 67.958 19.7932C67.5952 19.6325 67.27 19.3976 67.0034 19.1038C66.7367 18.8099 66.5345 18.4634 66.4097 18.0867C66.2849 17.71 66.2403 17.3114 66.2788 16.9164ZM70.7228 16.9164C70.7228 15.615 70.1381 14.8539 69.1121 14.8539C68.0822 14.8539 67.5028 15.615 67.5028 16.9165C67.5028 18.2283 68.0822 18.9835 69.1121 18.9835C70.1382 18.9835 70.7228 18.2231 70.7228 16.9164H70.7228Z" fill="black"/>
  <path d="M79.4689 19.9211H78.2398L76.9989 15.4993H76.9051L75.6695 19.9211H74.452L72.7971 13.9172H73.9989L75.0744 18.4986H75.163L76.3973 13.9172H77.534L78.7684 18.4986H78.8622L79.9325 13.9172H81.1174L79.4689 19.9211Z" fill="black"/>
  <path d="M82.5093 13.9172H83.6499V14.871H83.7385C83.8887 14.5284 84.142 14.2413 84.4632 14.0495C84.7843 13.8578 85.1573 13.771 85.5301 13.8013C85.8223 13.7794 86.1156 13.8234 86.3884 13.9302C86.6612 14.037 86.9064 14.2038 87.106 14.4183C87.3056 14.6327 87.4544 14.8893 87.5413 15.1691C87.6282 15.4488 87.6511 15.7446 87.6082 16.0344V19.9211H86.4233V16.3319C86.4233 15.3671 86.0041 14.8873 85.1278 14.8873C84.9294 14.878 84.7314 14.9118 84.5474 14.9862C84.3633 15.0607 84.1975 15.174 84.0613 15.3185C83.9251 15.4631 83.8218 15.6353 83.7585 15.8235C83.6951 16.0117 83.6732 16.2113 83.6942 16.4087V19.9211H82.5093L82.5093 13.9172Z" fill="black"/>
  <path d="M89.4963 11.5735H90.6812V19.9211H89.4963V11.5735Z" fill="black"/>
  <path d="M92.3283 16.9166C92.2906 16.522 92.3358 16.1239 92.4609 15.7477C92.5861 15.3716 92.7884 15.0258 93.055 14.7325C93.3217 14.4392 93.6466 14.2049 94.0091 14.0445C94.3716 13.8841 94.7636 13.8013 95.16 13.8013C95.5564 13.8013 95.9484 13.8841 96.3109 14.0445C96.6734 14.2049 96.9984 14.4392 97.265 14.7325C97.5316 15.0258 97.734 15.3716 97.8591 15.7477C97.9843 16.1239 98.0294 16.522 97.9917 16.9166C98.0301 17.3115 97.9855 17.7102 97.8607 18.0869C97.7358 18.4636 97.5336 18.81 97.2669 19.1039C97.0002 19.3977 96.675 19.6326 96.3122 19.7933C95.9493 19.954 95.5569 20.037 95.16 20.037C94.7632 20.037 94.3707 19.954 94.0079 19.7933C93.645 19.6326 93.3198 19.3977 93.0531 19.1039C92.7864 18.81 92.5842 18.4636 92.4594 18.0869C92.3345 17.7102 92.2899 17.3115 92.3283 16.9166ZM96.7723 16.9166C96.7723 15.6151 96.1877 14.8541 95.1616 14.8541C94.1317 14.8541 93.5523 15.6151 93.5523 16.9166C93.5523 18.2284 94.1317 18.9836 95.1616 18.9836C96.1877 18.9836 96.7723 18.2232 96.7723 16.9166H96.7723Z" fill="black"/>
  <path d="M99.2391 18.2231C99.2391 17.1424 100.044 16.5194 101.472 16.4308L103.098 16.3371V15.8188C103.098 15.1847 102.679 14.8267 101.869 14.8267C101.208 14.8267 100.75 15.0695 100.618 15.494H99.4708C99.5919 14.4627 100.562 13.8013 101.924 13.8013C103.429 13.8013 104.278 14.5506 104.278 15.8188V19.9211H103.138V19.0773H103.044C102.853 19.38 102.586 19.6267 102.269 19.7923C101.953 19.9579 101.598 20.0365 101.24 20.02C100.988 20.0462 100.734 20.0193 100.493 19.941C100.252 19.8628 100.03 19.7349 99.8411 19.5656C99.6525 19.3963 99.5015 19.1894 99.3978 18.9581C99.2942 18.7269 99.2401 18.4765 99.2391 18.2231ZM103.098 17.7101V17.2082L101.632 17.3019C100.805 17.3572 100.43 17.6385 100.43 18.1678C100.43 18.7081 100.899 19.0226 101.544 19.0226C101.733 19.0417 101.923 19.0227 102.105 18.9665C102.286 18.9104 102.454 18.8184 102.599 18.6959C102.744 18.5735 102.863 18.4231 102.949 18.2537C103.035 18.0844 103.086 17.8995 103.098 17.7101Z" fill="black"/>
  <path d="M105.835 16.9166C105.835 15.0195 106.811 13.8176 108.328 13.8176C108.703 13.8004 109.075 13.8902 109.401 14.0768C109.727 14.2633 109.994 14.5388 110.169 14.871H110.257V11.5735H111.442V19.9211H110.307V18.9726H110.213C110.024 19.3026 109.749 19.5746 109.416 19.7592C109.084 19.9439 108.708 20.0341 108.328 20.0201C106.8 20.0202 105.835 18.8183 105.835 16.9166ZM107.059 16.9166C107.059 18.19 107.66 18.9563 108.664 18.9563C109.662 18.9563 110.28 18.179 110.28 16.9218C110.28 15.6705 109.656 14.8821 108.664 14.8821C107.666 14.8821 107.059 15.6536 107.059 16.9166H107.059Z" fill="black"/>
  <path d="M116.345 16.9164C116.307 16.5219 116.352 16.1238 116.477 15.7477C116.602 15.3716 116.805 15.0258 117.071 14.7325C117.338 14.4392 117.663 14.2048 118.025 14.0445C118.388 13.8841 118.78 13.8013 119.176 13.8013C119.572 13.8013 119.964 13.8841 120.327 14.0445C120.689 14.2048 121.014 14.4392 121.281 14.7325C121.547 15.0258 121.75 15.3716 121.875 15.7477C122 16.1238 122.045 16.5219 122.007 16.9164C122.046 17.3114 122.001 17.71 121.876 18.0867C121.752 18.4634 121.549 18.8099 121.283 19.1038C121.016 19.3976 120.691 19.6325 120.328 19.7932C119.965 19.9539 119.573 20.0369 119.176 20.0369C118.779 20.0369 118.387 19.9539 118.024 19.7932C117.661 19.6325 117.336 19.3976 117.069 19.1038C116.803 18.8099 116.6 18.4634 116.475 18.0867C116.351 17.71 116.306 17.3114 116.345 16.9164ZM120.789 16.9164C120.789 15.615 120.204 14.8539 119.178 14.8539C118.148 14.8539 117.569 15.615 117.569 16.9165C117.569 18.2283 118.148 18.9835 119.178 18.9835C120.204 18.9835 120.789 18.2231 120.789 16.9164Z" fill="black"/>
  <path d="M123.597 13.9172H124.738V14.871H124.826C124.977 14.5284 125.23 14.2413 125.551 14.0495C125.872 13.8578 126.245 13.771 126.618 13.8013C126.91 13.7794 127.203 13.8234 127.476 13.9302C127.749 14.037 127.994 14.2038 128.194 14.4183C128.393 14.6327 128.542 14.8893 128.629 15.1691C128.716 15.4488 128.739 15.7446 128.696 16.0344V19.9211H127.511V16.3319C127.511 15.3671 127.092 14.8873 126.216 14.8873C126.017 14.878 125.819 14.9118 125.635 14.9862C125.451 15.0607 125.285 15.174 125.149 15.3185C125.013 15.4631 124.91 15.6353 124.846 15.8235C124.783 16.0117 124.761 16.2113 124.782 16.4087V19.9211H123.597V13.9172Z" fill="black"/>
  <path d="M135.391 12.4226V13.9447H136.692V14.9428H135.391V18.03C135.391 18.6589 135.651 18.9343 136.24 18.9343C136.391 18.9338 136.542 18.9247 136.692 18.907V19.894C136.479 19.932 136.264 19.9523 136.048 19.9545C134.73 19.9545 134.205 19.491 134.205 18.3334V14.9427H133.252V13.9447H134.205V12.4226H135.391Z" fill="black"/>
  <path d="M138.311 11.5735H139.485V14.8821H139.579C139.736 14.5363 139.997 14.2475 140.324 14.0551C140.652 13.8626 141.031 13.7758 141.41 13.8066C141.7 13.7908 141.991 13.8393 142.26 13.9487C142.53 14.058 142.772 14.2256 142.97 14.4394C143.167 14.6532 143.315 14.9079 143.403 15.1854C143.491 15.4629 143.516 15.7564 143.477 16.0448V19.9212H142.291V16.3372C142.291 15.3782 141.845 14.8925 141.007 14.8925C140.804 14.8758 140.599 14.9038 140.407 14.9745C140.215 15.0453 140.042 15.157 139.898 15.302C139.754 15.447 139.643 15.6217 139.574 15.8139C139.504 16.0061 139.478 16.2111 139.496 16.4146V19.9211H138.311L138.311 11.5735Z" fill="black"/>
  <path d="M150.386 18.2998C150.225 18.8485 149.876 19.3232 149.401 19.6407C148.925 19.9582 148.353 20.0984 147.785 20.0368C147.389 20.0472 146.996 19.9715 146.633 19.8148C146.269 19.6581 145.944 19.4242 145.681 19.1293C145.417 18.8345 145.22 18.4857 145.105 18.1073C144.989 17.7289 144.957 17.3298 145.011 16.9378C144.959 16.5447 144.991 16.1448 145.106 15.7652C145.222 15.3856 145.417 15.0353 145.68 14.7378C145.942 14.4404 146.265 14.2028 146.628 14.0412C146.99 13.8796 147.383 13.7977 147.779 13.8011C149.45 13.8011 150.458 14.9425 150.458 16.8278V17.2412H146.218V17.3076C146.2 17.528 146.227 17.7497 146.3 17.9587C146.372 18.1677 146.487 18.3594 146.637 18.5213C146.788 18.6832 146.971 18.8119 147.174 18.8991C147.377 18.9863 147.596 19.0301 147.817 19.0276C148.101 19.0617 148.388 19.0106 148.642 18.881C148.896 18.7514 149.107 18.5491 149.246 18.2998L150.386 18.2998ZM146.218 16.3649H149.251C149.266 16.1634 149.238 15.961 149.17 15.7707C149.102 15.5804 148.995 15.4065 148.856 15.26C148.717 15.1135 148.549 14.9978 148.362 14.9202C148.176 14.8426 147.975 14.805 147.773 14.8096C147.568 14.807 147.365 14.8455 147.175 14.9228C146.985 15 146.812 15.1145 146.668 15.2594C146.523 15.4044 146.408 15.5769 146.331 15.7667C146.254 15.9566 146.216 16.16 146.218 16.3649H146.218Z" fill="black"/>
</svg>