<svg width="81" height="22" viewBox="0 0 81 22" fill="none" xmlns="http://www.w3.org/2000/svg">
<g id="slack-2 1" clip-path="url(#clip0_93_15)">
<path id="Vector" fill-rule="evenodd" clip-rule="evenodd" d="M25.7651 16.8736L26.7635 14.5536C27.8419 15.36 29.2787 15.7792 30.6963 15.7792C31.7427 15.7792 32.4051 15.376 32.4051 14.7648C32.3891 13.056 26.1363 14.3936 26.0883 10.1088C26.0723 7.93284 28.0051 6.25604 30.7443 6.25604C32.3731 6.25604 33.9987 6.65924 35.1603 7.57764L34.2259 9.94564C33.1635 9.26724 31.8419 8.78404 30.5843 8.78404C29.7299 8.78404 29.1667 9.18724 29.1667 9.70244C29.1827 11.3792 35.4835 10.4608 35.5475 14.5536C35.5475 16.7776 33.6627 18.3424 30.9555 18.3424C28.9715 18.3392 27.1507 17.872 25.7651 16.8736ZM64.1043 13.7152C63.6051 14.5856 62.6707 15.1808 61.5891 15.1808C59.9923 15.1808 58.7059 13.8912 58.7059 12.2976C58.7059 10.704 59.9955 9.41444 61.5891 9.41444C62.6675 9.41444 63.6051 10.0096 64.1043 10.88L66.8595 9.35044C65.8291 7.51364 63.8451 6.25604 61.5891 6.25604C58.2515 6.25604 55.5443 8.96324 55.5443 12.3008C55.5443 15.6384 58.2515 18.3456 61.5891 18.3456C63.8611 18.3456 65.8291 17.104 66.8595 15.2512L64.1043 13.7152ZM36.9331 1.24164H40.3827V18.1152H36.9331V1.24164ZM68.2131 1.24164V18.1152H71.6627V13.0528L75.7555 18.1152H80.1715L74.9651 12.1024L79.7843 6.49284H75.5603L71.6595 11.1488V1.24164H68.2131Z" fill="black"/>
<path id="Vector_2" d="M50.6323 13.7471C50.1331 14.5695 49.1027 15.1807 47.9411 15.1807C46.3443 15.1807 45.0579 13.8911 45.0579 12.2975C45.0579 10.7039 46.3475 9.41435 47.9411 9.41435C49.1027 9.41435 50.1331 10.0575 50.6323 10.8959V13.7471ZM50.6323 6.49595V7.86555C50.0691 6.91515 48.6675 6.25275 47.1987 6.25275C44.1683 6.25275 41.7843 8.92795 41.7843 12.2815C41.7843 15.6351 44.1683 18.3423 47.1987 18.3423C48.6643 18.3423 50.0659 17.6831 50.6323 16.7295V18.0991H54.0819V6.49595H50.6323Z" fill="black"/>
<g id="Group">
<path id="Vector_3" fill-rule="evenodd" clip-rule="evenodd" d="M4.4435 13.7312C4.4435 14.9088 3.4931 15.8592 2.3155 15.8592C1.1379 15.8592 0.1875 14.9056 0.1875 13.7312C0.1875 12.5568 1.1379 11.6031 2.3155 11.6031H4.4435V13.7312ZM5.5059 13.7312C5.5059 12.5536 6.4563 11.6031 7.6339 11.6031C8.8115 11.6031 9.7619 12.5536 9.7619 13.7312V19.0496C9.7619 20.2272 8.8115 21.1776 7.6339 21.1776C6.4563 21.1776 5.5059 20.2272 5.5059 19.0496V13.7312Z" fill="#E01E5A"/>
<path id="Vector_4" fill-rule="evenodd" clip-rule="evenodd" d="M7.63391 5.19039C6.45631 5.19039 5.50591 4.23999 5.50591 3.06239C5.50591 1.88479 6.45631 0.934387 7.63391 0.934387C8.81151 0.934387 9.76191 1.88479 9.76191 3.06239V5.19039H7.63391ZM7.63391 6.26879C8.81151 6.26879 9.76191 7.21919 9.76191 8.39679C9.76191 9.57439 8.81151 10.5248 7.63391 10.5248H2.29951C1.12191 10.5248 0.171509 9.57119 0.171509 8.39679C0.171509 7.22239 1.12191 6.26879 2.29951 6.26879H7.63391Z" fill="#36C5F0"/>
<path id="Vector_5" fill-rule="evenodd" clip-rule="evenodd" d="M16.1587 8.39679C16.1587 7.21919 17.1091 6.26879 18.2867 6.26879C19.4643 6.26879 20.4147 7.21919 20.4147 8.39679C20.4147 9.57439 19.4643 10.5248 18.2867 10.5248H16.1587V8.39679ZM15.0963 8.39679C15.0963 9.57439 14.1459 10.5248 12.9683 10.5248C11.7907 10.5248 10.8403 9.57439 10.8403 8.39679V3.06239C10.8403 1.88479 11.7907 0.934387 12.9683 0.934387C14.1459 0.934387 15.0963 1.88479 15.0963 3.06239V8.39679Z" fill="#2EB67D"/>
<path id="Vector_6" fill-rule="evenodd" clip-rule="evenodd" d="M12.9683 16.9216C14.1459 16.9216 15.0963 17.872 15.0963 19.0496C15.0963 20.2272 14.1459 21.1776 12.9683 21.1776C11.7907 21.1776 10.8403 20.2272 10.8403 19.0496V16.9216H12.9683ZM12.9683 15.8592C11.7907 15.8592 10.8403 14.9088 10.8403 13.7312C10.8403 12.5536 11.7907 11.6031 12.9683 11.6031H18.3027C19.4803 11.6031 20.4307 12.5536 20.4307 13.7312C20.4307 14.9088 19.4803 15.8592 18.3027 15.8592H12.9683Z" fill="#ECB22E"/>
</g>
</g>
<defs>
<clipPath id="clip0_93_15">
<rect width="80" height="20.2432" fill="white" transform="translate(0.171509 0.934387)"/>
</clipPath>
</defs>
</svg>
